# 3ds Max Wavefront OBJ Exporter v0.97b - (c)2007 guruware
# File Created: 24.02.2015 13:02:07

mtllib BookCase_02.mtl

#
# object BookShelf
#

v  -15.7813 61.0319 35.3631
v  -15.7814 61.0319 177.4256
v  -15.7814 64.7801 177.4256
v  -15.7813 64.7800 35.3631
v  -20.9652 64.7801 35.3631
v  -20.9652 64.7800 177.4256
v  -20.9652 61.0319 177.4256
v  -20.9652 61.0319 35.3631
v  -15.7813 -115.1000 35.3630
v  -20.9652 -115.1000 35.3630
v  -20.9652 -115.1000 177.4256
v  -15.7814 -115.1000 177.4256
v  -15.7814 115.1000 177.4256
v  -20.9652 115.1000 177.4256
v  -20.9652 115.1000 35.3630
v  -15.7813 115.1000 35.3630
v  -15.7814 61.0319 181.8009
v  -20.9652 61.0319 181.8009
v  -20.9652 64.7800 181.8009
v  -15.7814 64.7801 181.8009
v  20.9652 61.0319 32.0730
v  20.9652 61.0319 35.3631
v  20.9652 64.7800 35.3631
v  20.9652 64.7801 32.0730
v  20.9652 64.7801 181.8009
v  20.9652 64.7801 177.4256
v  20.9652 61.0319 177.4256
v  20.9652 61.0319 181.8009
v  -20.9652 64.7801 32.0730
v  -20.9652 61.0319 32.0730
v  -15.7813 -115.1000 32.0729
v  -20.9652 -115.1000 32.0729
v  -20.9652 -115.1000 181.8009
v  -15.7814 -115.1000 181.8009
v  -15.7814 115.1000 181.8009
v  -20.9652 115.1000 181.8009
v  -20.9652 115.1000 32.0729
v  -15.7813 115.1000 32.0729
v  20.9652 -115.1000 35.3631
v  20.9652 -115.1000 177.4256
v  20.9652 -101.6914 177.4256
v  20.9652 -101.6914 35.3631
v  20.9652 115.1000 177.4256
v  20.9652 115.1000 35.3630
v  20.9652 102.7548 35.3630
v  20.9652 102.7548 177.4256
v  -20.9652 102.7548 177.4256
v  -20.9652 102.7548 35.3630
v  -20.9652 -101.6914 35.3630
v  -20.9652 -101.6914 177.4256
v  -20.9652 -101.6914 181.8009
v  -15.7814 -101.6914 181.8009
v  -15.7814 102.7548 181.8009
v  -20.9652 102.7548 181.8009
v  20.9652 -115.1000 32.0730
v  20.9652 -101.6914 32.0730
v  20.9652 115.1000 32.0729
v  20.9652 102.7548 32.0729
v  20.9652 115.1000 181.8009
v  20.9652 102.7548 181.8009
v  20.9652 -115.1000 181.8009
v  20.9652 -101.6914 181.8009
v  -20.9652 102.7548 32.0729
v  -20.9652 -101.6914 32.0729
v  -15.7813 102.7548 35.3630
v  -15.7814 102.7548 177.4256
v  -15.7814 -101.6914 177.4256
v  -15.7813 -101.6914 35.3630
v  -15.7813 19.3504 35.3631
v  -15.7814 19.3505 177.4256
v  -15.7814 23.0197 177.4256
v  -15.7813 23.0197 35.3631
v  -20.9652 19.3505 177.4256
v  -20.9652 19.3504 35.3631
v  -20.9652 23.0197 35.3631
v  -20.9652 23.0197 177.4256
v  -15.7814 19.3504 181.8009
v  -20.9652 19.3505 181.8009
v  -20.9652 23.0197 181.8009
v  -15.7814 23.0197 181.8009
v  20.9652 19.3504 32.0729
v  20.9652 19.3504 35.3631
v  20.9652 23.0197 35.3631
v  20.9652 23.0197 32.0729
v  20.9652 19.3504 177.4256
v  20.9652 19.3504 181.8009
v  20.9652 23.0197 181.8009
v  20.9652 23.0197 177.4256
v  -20.9652 19.3504 32.0730
v  -20.9652 23.0197 32.0730
v  -15.7813 102.7548 32.0729
v  -15.7813 64.7801 32.0730
v  -15.7813 -23.5167 35.3631
v  -15.7814 -23.5167 177.4256
v  -15.7814 -19.7135 177.4257
v  -15.7813 -19.7135 35.3631
v  -20.9652 -23.5167 177.4256
v  -20.9652 -23.5167 35.3631
v  -20.9652 -19.7135 35.3631
v  -20.9652 -19.7134 177.4256
v  -15.7814 -23.5167 181.8009
v  -20.9652 -23.5167 181.8009
v  -20.9652 -19.7134 181.8009
v  -15.7814 -19.7135 181.8009
v  20.9652 -23.5168 32.0730
v  20.9652 -23.5168 35.3631
v  20.9652 -19.7135 35.3631
v  20.9652 -19.7135 32.0730
v  20.9652 -23.5167 177.4256
v  20.9652 -23.5167 181.8009
v  20.9652 -19.7135 181.8009
v  20.9652 -19.7135 177.4256
v  -20.9652 -23.5167 32.0730
v  -20.9652 -19.7135 32.0730
v  -15.7813 61.0319 32.0730
v  -15.7813 23.0197 32.0730
v  -15.7813 -68.5377 35.3631
v  -15.7814 -68.5377 177.4256
v  -15.7814 -64.4860 177.4256
v  -15.7813 -64.4860 35.3631
v  -20.9652 -68.5377 177.4256
v  -20.9652 -68.5377 35.3631
v  -20.9652 -64.4860 35.3631
v  -20.9652 -64.4860 177.4256
v  -15.7814 -68.5377 181.8009
v  -20.9652 -68.5376 181.8009
v  -20.9652 -64.4860 181.8009
v  -15.7814 -64.4860 181.8009
v  20.9652 -68.5377 32.0729
v  20.9652 -68.5377 35.3630
v  20.9652 -64.4860 35.3630
v  20.9652 -64.4860 32.0729
v  20.9652 -68.5377 177.4256
v  20.9652 -68.5377 181.8009
v  20.9652 -64.4860 181.8009
v  20.9652 -64.4860 177.4256
v  -20.9652 -68.5377 32.0730
v  -20.9652 -64.4860 32.0730
v  -15.7814 19.3504 32.0730
v  -15.7813 -19.7135 32.0730
v  -15.7813 -101.6914 32.0730
v  -15.7813 -68.5377 32.0730
v  -15.7814 -23.5167 32.0730
v  -15.7813 -64.4860 32.0730
v  -20.9652 -115.1000 -32.0730
v  -20.9652 -101.6914 -32.0730
v  -15.7814 -115.1000 -32.0730
v  20.9652 -115.1000 -32.0730
v  20.9652 -101.6914 -32.0730
v  -15.7814 -101.6914 -32.0730
v  -15.7814 -68.5377 -32.0730
v  20.9652 -68.5377 -32.0730
v  20.9652 -64.4860 -32.0730
v  -15.7814 -64.4860 -32.0730
v  -15.7814 -23.5167 -32.0730
v  20.9652 -23.5168 -32.0730
v  20.9652 -19.7135 -32.0730
v  -15.7814 -19.7135 -32.0730
v  -15.7814 19.3504 -32.0730
v  20.9652 19.3504 -32.0730
v  20.9652 23.0197 -32.0730
v  -15.7814 23.0197 -32.0730
v  -15.7814 61.0319 -32.0730
v  20.9652 61.0319 -32.0730
v  20.9652 64.7800 -32.0730
v  -15.7814 64.7800 -32.0730
v  -15.7814 102.7548 -32.0730
v  20.9652 102.7548 -32.0730
v  20.9652 115.1000 -32.0730
v  -15.7814 115.1000 -32.0730
v  -20.9652 115.1000 -32.0730
v  -20.9652 102.7548 -32.0730
v  -20.9652 64.7801 -32.0730
v  -20.9652 61.0319 -32.0730
v  -20.9652 23.0197 -32.0730
v  -20.9652 19.3504 -32.0730
v  -20.9652 -19.7135 -32.0730
v  -20.9652 -23.5167 -32.0730
v  -20.9652 -64.4860 -32.0730
v  -20.9652 -68.5377 -32.0730
v  -15.7814 61.0319 -35.3631
v  -15.7814 64.7800 -35.3631
v  -15.7814 64.7801 -177.4257
v  -15.7813 61.0319 -177.4257
v  -20.9652 64.7801 -35.3631
v  -20.9652 61.0319 -35.3631
v  -20.9652 61.0319 -177.4257
v  -20.9652 64.7800 -177.4257
v  -15.7814 -115.1000 -35.3631
v  -15.7813 -115.1000 -177.4257
v  -20.9652 -115.1000 -177.4257
v  -20.9652 -115.1000 -35.3631
v  -15.7813 115.1000 -177.4257
v  -15.7814 115.1000 -35.3631
v  -20.9652 115.1000 -35.3631
v  -20.9652 115.1000 -177.4257
v  -15.7813 61.0319 -181.8010
v  -15.7813 64.7801 -181.8010
v  -20.9652 64.7800 -181.8010
v  -20.9652 61.0319 -181.8010
v  20.9652 64.7800 -35.3631
v  20.9652 61.0319 -35.3631
v  20.9652 64.7801 -181.8010
v  20.9652 61.0319 -181.8010
v  20.9652 61.0319 -177.4257
v  20.9652 64.7801 -177.4257
v  -20.9652 -115.1000 -181.8010
v  -15.7813 -115.1000 -181.8010
v  -15.7813 115.1000 -181.8009
v  -20.9652 115.1000 -181.8010
v  20.9652 -115.1000 -35.3631
v  20.9652 -101.6914 -35.3631
v  20.9652 -101.6914 -177.4257
v  20.9652 -115.1000 -177.4257
v  20.9652 115.1000 -177.4257
v  20.9652 102.7548 -177.4257
v  20.9652 102.7548 -35.3631
v  20.9652 115.1000 -35.3631
v  -20.9652 102.7548 -35.3631
v  -20.9652 102.7548 -177.4257
v  -20.9652 -101.6914 -177.4257
v  -20.9652 -101.6914 -35.3631
v  -15.7813 -101.6914 -181.8010
v  -20.9652 -101.6914 -181.8010
v  -20.9652 102.7548 -181.8010
v  -15.7813 102.7548 -181.8009
v  20.9652 115.1000 -181.8009
v  20.9652 102.7548 -181.8009
v  20.9652 -101.6914 -181.8010
v  20.9652 -115.1000 -181.8010
v  -15.7814 102.7548 -35.3631
v  -15.7813 102.7548 -177.4257
v  -15.7813 -101.6914 -177.4257
v  -15.7814 -101.6914 -35.3631
v  -15.7814 19.3504 -35.3631
v  -15.7814 23.0197 -35.3631
v  -15.7813 23.0197 -177.4257
v  -15.7813 19.3505 -177.4257
v  -20.9652 19.3505 -177.4257
v  -20.9652 23.0197 -177.4257
v  -20.9652 23.0197 -35.3631
v  -20.9652 19.3504 -35.3631
v  -15.7813 19.3504 -181.8010
v  -15.7813 23.0197 -181.8010
v  -20.9652 23.0197 -181.8010
v  -20.9652 19.3505 -181.8010
v  20.9652 23.0197 -35.3631
v  20.9652 19.3504 -35.3631
v  20.9652 19.3504 -177.4257
v  20.9652 23.0197 -177.4257
v  20.9652 23.0197 -181.8009
v  20.9652 19.3504 -181.8010
v  -15.7814 -23.5167 -35.3631
v  -15.7814 -19.7135 -35.3631
v  -15.7813 -19.7135 -177.4257
v  -15.7813 -23.5167 -177.4257
v  -20.9652 -23.5167 -177.4257
v  -20.9652 -19.7134 -177.4257
v  -20.9652 -19.7135 -35.3631
v  -20.9652 -23.5167 -35.3631
v  -15.7813 -23.5167 -181.8010
v  -15.7813 -19.7135 -181.8010
v  -20.9652 -19.7134 -181.8010
v  -20.9652 -23.5167 -181.8010
v  20.9652 -19.7135 -35.3631
v  20.9652 -23.5168 -35.3631
v  20.9652 -23.5167 -177.4257
v  20.9652 -19.7135 -177.4257
v  20.9652 -19.7135 -181.8010
v  20.9652 -23.5167 -181.8010
v  -15.7814 -68.5377 -35.3631
v  -15.7814 -64.4860 -35.3631
v  -15.7813 -64.4860 -177.4257
v  -15.7813 -68.5377 -177.4257
v  -20.9652 -68.5377 -177.4257
v  -20.9652 -64.4860 -177.4257
v  -20.9652 -64.4860 -35.3631
v  -20.9652 -68.5377 -35.3631
v  -15.7813 -68.5377 -181.8010
v  -15.7813 -64.4860 -181.8010
v  -20.9652 -64.4860 -181.8010
v  -20.9652 -68.5377 -181.8010
v  20.9652 -64.4860 -35.3631
v  20.9652 -68.5377 -35.3631
v  20.9652 -68.5377 -177.4257
v  20.9652 -64.4860 -177.4257
v  20.9652 -64.4860 -181.8009
v  20.9652 -68.5377 -181.8009
# 288 vertices

vn 1.0000 -0.0000 0.0000
vn 1.0000 0.0000 0.0000
vn -1.0000 -0.0000 -0.0000
vn -1.0000 -0.0000 0.0000
vn -0.0000 -1.0000 -0.0000
vn -0.0000 -1.0000 0.0000
vn -0.0000 1.0000 0.0000
vn -0.0000 0.0000 1.0000
vn 1.0000 -0.0000 -0.0000
vn 1.0000 0.0000 -0.0000
vn -1.0000 0.0000 -0.0000
vn -0.0000 1.0000 -0.0000
vn -1.0000 0.0000 0.0000
vn -0.0000 -0.0000 1.0000
vn 0.0000 -0.0000 1.0000
vn 0.0000 0.0000 1.0000
vn 0.0000 -1.0000 0.0000
vn 0.0000 -1.0000 -0.0000
vn -0.0000 -0.0000 -1.0000
vn 0.0000 -0.0000 -1.0000
vn -0.0000 0.0000 -1.0000
vn 0.0000 1.0000 -0.0000
vn 0.0000 0.0000 -1.0000
vn 0.0000 1.0000 0.0000
# 24 vertex normals

vt 0.0368 0.4912 0.0000
vt 0.9632 0.4912 0.0000
vt 0.9632 0.5088 0.0000
vt 0.0368 0.5088 0.0000
vt 0.9632 0.0000 0.0000
vt 0.9632 1.0000 0.0000
vt 0.0368 1.0000 0.0000
vt 0.0368 0.0000 0.0000
vt 0.5088 0.0000 0.0000
vt 0.5088 1.0000 0.0000
vt 0.4912 1.0000 0.0000
vt 0.4912 0.0000 0.0000
vt 0.0000 0.4912 0.0000
vt 0.0000 0.5088 0.0000
vt 1.0000 0.5088 0.0000
vt 1.0000 0.4912 0.0000
vt 1.0000 0.0000 0.0000
vt 1.0000 1.0000 0.0000
vt 0.0000 1.0000 0.0000
vt 0.0000 0.0000 0.0000
vt 0.9632 0.0206 0.0000
vt 0.0368 0.0206 0.0000
vt 0.0368 0.9794 0.0000
vt 0.9632 0.9794 0.0000
vt 0.9794 1.0000 0.0000
vt 0.9794 0.0000 0.0000
vt 0.0206 0.0000 0.0000
vt 0.0206 1.0000 0.0000
vt 0.0000 0.0206 0.0000
vt 0.0000 0.9794 0.0000
vt 1.0000 0.9794 0.0000
vt 1.0000 0.0206 0.0000
vt 0.0368 0.2506 0.0000
vt 0.9632 0.2506 0.0000
vt 0.9632 0.2612 0.0000
vt 0.0368 0.2612 0.0000
vt 0.7494 0.0000 0.0000
vt 0.7494 1.0000 0.0000
vt 0.7388 1.0000 0.0000
vt 0.7388 0.0000 0.0000
vt 0.0000 0.2506 0.0000
vt 0.0000 0.2612 0.0000
vt 1.0000 0.2506 0.0000
vt 1.0000 0.2612 0.0000
vt 0.0368 0.1321 0.0000
vt 0.9632 0.1321 0.0000
vt 0.9632 0.1392 0.0000
vt 0.0368 0.1392 0.0000
vt 0.8679 0.0000 0.0000
vt 0.8679 1.0000 0.0000
vt 0.8608 1.0000 0.0000
vt 0.8608 0.0000 0.0000
vt 0.0000 0.1321 0.0000
vt 0.0000 0.1392 0.0000
vt 1.0000 0.1321 0.0000
vt 1.0000 0.1392 0.0000
vt 0.0368 0.0739 0.0000
vt 0.9632 0.0739 0.0000
vt 0.9632 0.0788 0.0000
vt 0.0368 0.0788 0.0000
vt 0.9261 0.0000 0.0000
vt 0.9261 1.0000 0.0000
vt 0.9212 1.0000 0.0000
vt 0.9212 0.0000 0.0000
vt 0.0000 0.0739 0.0000
vt 0.0000 0.0788 0.0000
vt 1.0000 0.0739 0.0000
vt 1.0000 0.0788 0.0000
vt 0.0739 0.0000 0.0000
vt 0.0788 0.0000 0.0000
vt 0.1321 0.0000 0.0000
vt 0.1392 0.0000 0.0000
vt 0.2506 0.0000 0.0000
vt 0.2612 0.0000 0.0000
vt 0.2612 1.0000 0.0000
vt 0.2506 1.0000 0.0000
vt 0.1392 1.0000 0.0000
vt 0.1321 1.0000 0.0000
vt 0.0788 1.0000 0.0000
vt 0.0739 1.0000 0.0000
# 80 texture coords

g BookShelf
usemtl 01___Default
s 2
f 4/4/1 3/3/2 2/2/2 1/1/1 
s 4
f 8/2/3 7/1/4 6/4/4 5/3/3 
s 8
f 12/8/6 11/7/6 10/6/5 9/5/5 
s 32
f 16/8/7 15/7/7 14/6/7 13/5/7 
s 64
f 20/12/8 19/11/8 18/10/8 17/9/8 
s 2
f 24/14/1 23/4/1 22/1/10 21/13/9 
f 28/16/10 27/2/9 26/3/1 25/15/1 
s 4
f 30/16/11 8/2/3 5/3/3 29/15/3 
f 19/14/4 6/4/4 7/1/4 18/13/4 
s 8
f 9/5/5 10/6/5 32/18/5 31/17/5 
f 11/7/6 12/8/6 34/20/6 33/19/6 
s 32
f 13/5/7 14/6/7 36/18/7 35/17/7 
f 15/7/7 16/8/7 38/20/12 37/19/12 
s 2
f 42/22/2 41/21/10 40/5/10 39/8/2 
f 46/24/9 45/23/9 44/7/9 43/6/9 
s 4
f 48/24/11 47/23/11 14/7/13 15/6/11 
f 50/22/3 49/21/3 10/5/3 11/8/3 
s 64
f 52/26/14 51/25/14 33/18/14 34/17/14 
f 54/28/16 53/27/16 35/20/15 36/19/15 
s 2
f 56/29/2 42/22/2 39/8/2 55/20/2 
f 45/23/9 58/30/9 57/19/10 44/7/9 
f 60/31/9 46/24/9 43/6/9 59/18/9 
f 41/21/10 62/32/10 61/17/10 40/5/10 
s 4
f 63/31/3 48/24/11 15/6/11 37/18/11 
f 49/21/3 64/32/3 32/17/3 10/5/3 
f 51/29/3 50/22/3 11/8/3 33/20/3 
f 47/23/11 54/30/11 36/19/13 14/7/13 
s off
f 61/17/8 62/32/8 52/32/8 34/17/8 
f 17/16/8 28/16/8 25/15/8 20/15/8 
f 60/31/8 59/18/8 35/18/8 53/31/8 
f 59/18/12 43/6/12 13/6/12 35/18/12 
f 43/6/7 44/7/7 16/7/7 13/6/7 
f 44/7/12 57/19/12 38/19/12 16/7/12 
f 55/20/17 39/8/17 9/8/17 31/20/17 
f 39/8/18 40/5/18 12/5/18 9/8/18 
f 40/5/17 61/17/17 34/17/17 12/5/17 
f 45/23/17 46/24/17 66/24/17 65/23/17 
f 41/21/7 42/22/7 68/22/7 67/21/7 
s 2
f 72/36/1 71/35/1 70/34/1 69/33/1 
f 3/3/2 4/4/1 65/23/2 66/24/1 
s 4
f 5/3/3 6/4/4 47/23/11 48/24/11 
f 76/36/13 75/35/13 74/34/11 73/33/4 
s 64
f 80/40/8 79/39/14 78/38/14 77/37/14 
f 19/11/8 20/12/8 53/27/16 54/28/16 
s 2
f 84/42/1 83/36/1 82/33/2 81/41/1 
f 23/4/1 24/14/1 58/30/9 45/23/9 
f 25/15/1 26/3/1 46/24/9 60/31/9 
f 88/35/1 87/44/1 86/43/10 85/34/9 
s 4
f 29/15/3 5/3/3 48/24/11 63/31/3 
f 75/35/13 90/44/13 89/43/3 74/34/11 
f 79/42/13 76/36/13 73/33/4 78/41/13 
f 6/4/4 19/14/4 54/30/11 47/23/11 
s off
f 20/15/8 25/15/8 60/31/8 53/31/8 
f 87/44/16 80/44/16 77/43/16 86/43/16 
f 24/14/19 92/14/19 91/30/19 58/30/19 
f 4/4/8 23/4/8 45/23/8 65/23/8 
f 26/3/20 3/3/20 66/24/20 46/24/20 
s 1
f 26/3/1 27/2/1 22/1/2 23/4/2 
s 4
f 2/2/17 1/1/17 22/1/17 
f 22/1/17 27/2/17 2/2/17 
s 1
f 3/3/11 4/4/11 1/1/11 
f 1/1/3 2/2/3 3/3/3 
s 4
f 26/3/12 23/4/12 4/4/12 
f 4/4/12 3/3/12 26/3/12 
s 2
f 96/48/2 95/47/2 94/46/2 93/45/2 
f 71/35/1 72/36/1 1/1/1 2/2/2 
s 4
f 100/48/13 99/47/4 98/46/4 97/45/13 
f 75/35/13 76/36/13 7/1/4 8/2/3 
s 64
f 104/52/8 103/51/8 102/50/14 101/49/8 
f 79/39/14 80/40/8 17/9/8 18/10/8 
s 2
f 108/54/1 107/48/1 106/45/1 105/53/1 
f 83/36/1 84/42/1 21/13/9 22/1/10 
f 112/47/2 111/56/2 110/55/2 109/46/2 
f 87/44/1 88/35/1 27/2/9 28/16/10 
s 4
f 99/47/4 114/56/4 113/55/13 98/46/4 
f 90/44/13 75/35/13 8/2/3 30/16/11 
f 103/54/13 100/48/13 97/45/13 102/53/13 
f 76/36/13 79/42/13 18/13/4 7/1/4 
s off
f 111/56/16 104/56/16 101/55/16 110/55/16 
f 80/44/16 87/44/16 28/16/16 17/16/16 
f 84/42/21 116/42/21 115/13/21 21/13/21 
f 72/36/16 83/36/16 22/1/16 1/1/16 
f 88/35/19 71/35/19 2/2/19 27/2/19 
s 1
f 71/35/11 72/36/11 69/33/11 
f 69/33/11 70/34/11 71/35/11 
s 4
f 88/35/12 83/36/22 72/36/22 
f 72/36/12 71/35/12 88/35/12 
s 1
f 88/35/1 85/34/1 82/33/2 83/36/2 
s 4
f 70/34/6 69/33/6 82/33/6 
f 82/33/6 85/34/6 70/34/6 
s 2
f 120/60/1 119/59/2 118/58/2 117/57/1 
f 95/47/2 96/48/2 69/33/1 70/34/1 
s 4
f 124/60/13 123/59/13 122/58/11 121/57/13 
f 99/47/4 100/48/13 73/33/4 74/34/11 
s 64
f 128/64/14 127/63/14 126/62/14 125/61/14 
f 103/51/8 104/52/8 77/37/14 78/38/14 
s 2
f 132/66/1 131/60/1 130/57/1 129/65/1 
f 107/48/1 108/54/1 81/41/1 82/33/2 
f 136/59/2 135/68/2 134/67/1 133/58/1 
f 111/56/2 112/47/2 85/34/9 86/43/10 
s 4
f 123/59/13 138/68/13 137/67/3 122/58/11 
f 114/56/4 99/47/4 74/34/11 89/43/3 
f 127/66/13 124/60/13 121/57/13 126/65/13 
f 100/48/13 103/54/13 78/41/13 73/33/4 
s off
f 135/68/15 128/68/15 125/67/15 134/67/15 
f 104/56/16 111/56/16 86/43/16 77/43/16 
f 108/54/19 140/54/19 139/41/19 81/41/19 
f 96/48/16 107/48/16 82/33/16 69/33/16 
f 112/47/19 95/47/19 70/34/19 85/34/19 
s 1
f 95/47/3 96/48/3 93/45/3 
f 93/45/3 94/46/3 95/47/3 
s 4
f 112/47/22 107/48/22 96/48/22 
f 96/48/22 95/47/22 112/47/22 
s 1
f 112/47/2 109/46/2 106/45/1 107/48/1 
s 4
f 94/46/6 93/45/6 106/45/6 
f 106/45/6 109/46/17 94/46/17 
s 2
f 117/57/1 118/58/2 67/21/2 68/22/1 
f 119/59/2 120/60/1 93/45/2 94/46/2 
s 4
f 121/57/13 122/58/11 49/21/3 50/22/3 
f 123/59/13 124/60/13 97/45/13 98/46/4 
s 64
f 125/61/14 126/62/14 51/25/14 52/26/14 
f 127/63/14 128/64/14 101/49/8 102/50/14 
s 2
f 129/65/1 130/57/1 42/22/2 56/29/2 
f 131/60/1 132/66/1 105/53/1 106/45/1 
f 133/58/1 134/67/1 62/32/10 41/21/10 
f 135/68/2 136/59/2 109/46/2 110/55/2 
s 4
f 122/58/11 137/67/3 64/32/3 49/21/3 
f 138/68/13 123/59/13 98/46/4 113/55/13 
f 126/65/13 121/57/13 50/22/3 51/29/3 
f 124/60/13 127/66/13 102/53/13 97/45/13 
s off
f 134/67/15 125/67/15 52/32/15 62/32/15 
f 128/68/15 135/68/15 110/55/15 101/55/15 
f 142/65/19 129/65/19 56/29/19 141/29/19 
f 132/66/21 144/66/21 143/53/21 105/53/21 
f 130/57/16 117/57/16 68/22/16 42/22/16 
f 120/60/15 131/60/15 106/45/15 93/45/15 
f 118/58/21 133/58/21 41/21/21 67/21/21 
f 136/59/19 119/59/19 94/46/19 109/46/19 
s 1
f 119/59/3 120/60/3 117/57/3 
f 117/57/3 118/58/3 119/59/3 
s 4
f 136/59/22 131/60/22 120/60/22 
f 120/60/22 119/59/22 136/59/22 
s 1
f 136/59/2 133/58/2 130/57/2 131/60/2 
s 4
f 118/58/17 117/57/17 130/57/17 
f 130/57/17 133/58/5 118/58/5 
s off
f 146/28/4 145/19/4 32/19/4 64/28/4 
f 145/19/6 147/20/6 31/20/6 32/19/6 
f 147/20/17 148/20/17 55/20/17 31/20/17 
f 148/20/10 149/29/10 56/29/10 55/20/10 
f 149/29/12 150/29/12 141/29/12 56/29/12 
f 150/27/10 151/69/10 142/69/10 141/27/10 
f 151/65/6 152/65/6 129/65/6 142/65/6 
f 152/65/9 153/66/9 132/66/9 129/65/9 
f 153/66/22 154/66/22 144/66/22 132/66/22 
f 154/70/10 155/71/10 143/71/10 144/70/10 
f 155/53/6 156/53/6 105/53/6 143/53/6 
f 156/53/9 157/54/9 108/54/9 105/53/9 
f 157/54/22 158/54/22 140/54/22 108/54/22 
f 158/72/10 159/73/10 139/73/10 140/72/10 
f 159/41/6 160/41/6 81/41/6 139/41/6 
f 160/41/9 161/42/9 84/42/9 81/41/9 
f 161/42/22 162/42/22 116/42/22 84/42/22 
f 162/74/9 163/12/9 115/12/9 116/74/9 
f 163/13/17 164/13/17 21/13/17 115/13/17 
f 164/13/9 165/14/9 24/14/9 21/13/9 
f 165/14/12 166/14/12 92/14/12 24/14/12 
f 166/9/9 167/26/9 91/26/9 92/9/9 
f 167/30/17 168/30/17 58/30/17 91/30/17 
f 168/30/10 169/19/10 57/19/10 58/30/10 
f 169/19/12 170/19/12 38/19/12 57/19/12 
f 170/17/12 171/18/12 37/18/12 38/17/12 
f 171/18/13 172/25/13 63/25/13 37/18/13 
f 172/25/4 173/10/4 29/10/4 63/25/4 
f 173/10/4 174/11/4 30/11/4 29/10/4 
f 174/11/13 175/75/13 90/75/13 30/11/13 
f 175/75/4 176/76/4 89/76/4 90/75/4 
f 176/76/4 177/77/4 114/77/4 89/76/4 
f 177/77/4 178/78/4 113/78/4 114/77/4 
f 178/78/13 179/79/13 138/79/13 113/78/13 
f 179/79/4 180/80/4 137/80/4 138/79/4 
f 180/80/4 146/28/4 64/28/4 137/80/4 
s 2
f 184/2/2 183/3/2 182/4/1 181/1/1 
s 4
f 188/4/3 187/1/3 186/2/4 185/3/3 
s 8
f 192/6/5 191/7/6 190/8/5 189/5/6 
s 32
f 196/6/12 195/7/7 194/8/7 193/5/7 
s 64
f 200/10/23 199/11/23 198/12/23 197/9/23 
s 2
f 202/1/2 201/4/1 165/14/1 164/13/2 
f 206/3/2 205/2/2 204/16/2 203/15/2 
s 4
f 185/3/3 186/2/4 174/16/4 173/15/4 
f 187/1/3 188/4/3 199/14/11 200/13/3 
s 8
f 145/18/18 192/6/5 189/5/6 147/17/5 
f 208/20/18 190/8/5 191/7/6 207/19/5 
s 32
f 210/18/12 196/6/12 193/5/7 209/17/12 
f 170/20/12 194/8/7 195/7/7 171/19/12 
s 2
f 214/5/2 213/21/2 212/22/2 211/8/2 
f 218/7/1 217/23/1 216/24/1 215/6/9 
s 4
f 196/7/11 220/23/11 219/24/11 195/6/11 
f 192/5/3 222/21/3 221/22/3 191/8/3 
s 64
f 207/18/23 224/25/23 223/26/23 208/17/23 
f 209/20/23 226/27/23 225/28/23 210/19/23 
s 2
f 211/8/2 212/22/2 149/29/2 148/20/2 
f 169/19/2 168/30/1 217/23/1 218/7/1 
f 215/6/9 216/24/1 228/31/2 227/18/9 
f 230/17/2 229/32/2 213/21/2 214/5/2 
s 4
f 195/6/11 219/24/11 172/31/11 171/18/11 
f 145/17/3 146/32/3 222/21/3 192/5/3 
f 191/8/3 221/22/3 224/29/3 207/20/3 
f 210/19/3 225/30/11 220/23/11 196/7/11 
s off
f 223/32/23 229/32/23 230/17/23 208/17/23 
f 203/15/23 204/16/23 197/16/23 198/15/23 
f 209/18/23 227/18/23 228/31/23 226/31/23 
f 193/6/12 215/6/12 227/18/12 209/18/12 
f 194/7/7 218/7/7 215/6/7 193/6/7 
f 170/19/12 169/19/12 218/7/12 194/7/12 
f 189/8/18 211/8/18 148/20/18 147/20/18 
f 190/5/17 214/5/17 211/8/17 189/8/17 
f 208/17/18 230/17/18 214/5/18 190/5/18 
f 232/24/17 216/24/17 217/23/17 231/23/17 
f 234/22/12 212/22/12 213/21/12 233/21/12 
s 2
f 238/34/1 237/35/1 236/36/2 235/33/2 
f 231/23/2 182/4/1 183/3/2 232/24/1 
s 4
f 220/23/11 188/4/3 185/3/3 219/24/11 
f 242/34/11 241/35/11 240/36/11 239/33/3 
s 64
f 246/38/23 245/39/23 244/40/23 243/37/23 
f 226/27/23 198/12/23 199/11/23 225/28/23 
s 2
f 248/33/10 247/36/9 161/42/9 160/41/9 
f 168/30/1 165/14/1 201/4/1 217/23/1 
f 216/24/1 206/3/2 203/15/2 228/31/2 
f 252/43/2 251/44/1 250/35/1 249/34/1 
s 4
f 219/24/11 185/3/3 173/15/4 172/31/11 
f 176/43/11 175/44/11 241/35/11 242/34/11 
f 239/33/3 240/36/11 245/42/11 246/41/3 
f 225/30/11 199/14/11 188/4/3 220/23/11 
s off
f 228/31/23 203/15/23 198/15/23 226/31/23 
f 243/43/23 244/44/23 251/44/23 252/43/23 
f 167/30/15 166/14/15 165/14/15 168/30/15 
f 217/23/21 201/4/21 182/4/21 231/23/21 
f 232/24/8 183/3/8 206/3/8 216/24/8 
s 1
f 202/1/2 205/2/2 206/3/2 201/4/2 
s 4
f 184/2/18 205/2/18 202/1/18 
f 202/1/18 181/1/18 184/2/18 
s 1
f 183/3/3 184/2/3 181/1/3 
f 181/1/11 182/4/11 183/3/11 
s 4
f 206/3/7 183/3/7 182/4/7 
f 182/4/7 201/4/7 206/3/7 
s 2
f 256/46/2 255/47/2 254/48/2 253/45/2 
f 181/1/1 236/36/2 237/35/1 184/2/2 
s 4
f 260/46/11 259/47/11 258/48/11 257/45/11 
f 187/1/3 240/36/11 241/35/11 186/2/4 
s 64
f 264/50/23 263/51/23 262/52/23 261/49/23 
f 197/9/23 244/40/23 245/39/23 200/10/23 
s 2
f 266/45/9 265/48/9 157/54/9 156/53/9 
f 164/13/2 161/42/9 247/36/9 202/1/2 
f 270/55/2 269/56/2 268/47/2 267/46/2 
f 205/2/2 250/35/1 251/44/1 204/16/2 
s 4
f 178/55/3 177/56/3 259/47/11 260/46/11 
f 186/2/4 241/35/11 175/44/11 174/16/4 
f 257/45/11 258/48/11 263/54/11 264/53/11 
f 200/13/3 245/42/11 240/36/11 187/1/3 
s off
f 261/55/23 262/56/23 269/56/23 270/55/23 
f 204/16/20 251/44/20 244/44/20 197/16/20 
f 163/13/14 162/42/14 161/42/14 164/13/14 
f 202/1/23 247/36/23 236/36/23 181/1/23 
f 184/2/8 237/35/8 250/35/8 205/2/8 
s 1
f 237/35/11 238/34/11 235/33/11 
f 235/33/3 236/36/3 237/35/3 
s 4
f 250/35/7 237/35/7 236/36/7 
f 236/36/7 247/36/7 250/35/7 
s 1
f 248/33/2 249/34/1 250/35/1 247/36/2 
s 4
f 238/34/5 249/34/5 248/33/5 
f 248/33/5 235/33/5 238/34/5 
s 2
f 274/58/2 273/59/2 272/60/2 271/57/2 
f 235/33/2 254/48/2 255/47/2 238/34/1 
s 4
f 278/58/3 277/59/11 276/60/11 275/57/11 
f 239/33/3 258/48/11 259/47/11 242/34/11 
s 64
f 282/62/23 281/63/23 280/64/23 279/61/23 
f 243/37/23 262/52/23 263/51/23 246/38/23 
s 2
f 284/57/9 283/60/9 153/66/9 152/65/9 
f 160/41/9 157/54/9 265/48/9 248/33/10 
f 288/67/1 287/68/2 286/59/2 285/58/1 
f 249/34/1 268/47/2 269/56/2 252/43/2 
s 4
f 180/67/3 179/68/11 277/59/11 278/58/3 
f 242/34/11 259/47/11 177/56/3 176/43/11 
f 275/57/11 276/60/11 281/66/3 282/65/11 
f 246/41/3 263/54/11 258/48/11 239/33/3 
s off
f 279/67/23 280/68/23 287/68/23 288/67/23 
f 252/43/23 269/56/23 262/56/23 243/43/23 
f 159/41/14 158/54/14 157/54/14 160/41/14 
f 248/33/23 265/48/23 254/48/23 235/33/23 
f 238/34/14 255/47/14 268/47/14 249/34/14 
s 1
f 255/47/3 256/46/3 253/45/3 
f 253/45/3 254/48/3 255/47/3 
s 4
f 268/47/24 255/47/24 254/48/24 
f 254/48/24 265/48/24 268/47/24 
s 1
f 266/45/1 267/46/2 268/47/2 265/48/1 
s 4
f 256/46/18 267/46/18 266/45/5 
f 266/45/5 253/45/5 256/46/5 
s 2
f 233/21/2 274/58/2 271/57/2 234/22/1 
f 253/45/2 272/60/2 273/59/2 256/46/2 
s 4
f 222/21/3 278/58/3 275/57/11 221/22/3 
f 257/45/11 276/60/11 277/59/11 260/46/11 
s 64
f 224/25/23 282/62/23 279/61/23 223/26/23 
f 261/49/23 280/64/23 281/63/23 264/50/23 
s 2
f 212/22/2 284/57/9 152/65/9 149/29/2 
f 156/53/9 153/66/9 283/60/9 266/45/9 
f 229/32/2 288/67/1 285/58/1 213/21/2 
f 267/46/2 286/59/2 287/68/2 270/55/2 
s 4
f 146/32/3 180/67/3 278/58/3 222/21/3 
f 260/46/11 277/59/11 179/68/11 178/55/3 
f 221/22/3 275/57/11 282/65/11 224/29/3 
f 264/53/11 281/66/3 276/60/11 257/45/11 
s off
f 223/32/23 279/67/23 288/67/23 229/32/23 
f 270/55/20 287/68/20 280/68/20 261/55/20 
f 149/29/8 152/65/8 151/65/8 150/29/8 
f 155/53/14 154/66/14 153/66/14 156/53/14 
f 234/22/23 271/57/23 284/57/23 212/22/23 
f 266/45/20 283/60/20 272/60/20 253/45/20 
f 213/21/8 285/58/8 274/58/8 233/21/8 
f 256/46/8 273/59/8 286/59/8 267/46/8 
s 1
f 273/59/3 274/58/3 271/57/3 
f 271/57/3 272/60/3 273/59/3 
s 4
f 286/59/24 273/59/24 272/60/24 
f 272/60/24 283/60/24 286/59/24 
s 1
f 284/57/2 285/58/2 286/59/2 283/60/2 
s 4
f 274/58/5 285/58/5 284/57/18 
f 284/57/18 271/57/18 274/58/18 
# 278 polygons - 48 triangles

