# 3ds Max Wavefront OBJ Exporter v0.97b - (c)2007 guruware
# File Created: 24.02.2015 13:13:27

mtllib GlassCup_01.mtl

#
# object GlassCup
#

v  17.1385 -16.8901 -6.2379
v  17.1385 -15.8429 -6.2379
v  18.2384 -15.8429 -0.0000
v  18.2384 -16.8901 -0.0000
v  13.9715 -16.8901 -11.7234
v  13.9715 -15.8429 -11.7234
v  9.1192 -16.8901 -15.7950
v  9.1192 -15.8429 -15.7950
v  3.1671 -16.8901 -17.9614
v  3.1671 -15.8429 -17.9614
v  -3.1671 -16.8901 -17.9614
v  -3.1671 -15.8429 -17.9614
v  -9.1192 -16.8901 -15.7950
v  -9.1192 -15.8429 -15.7950
v  -13.9715 -16.8901 -11.7234
v  -13.9715 -15.8429 -11.7234
v  -17.1385 -16.8901 -6.2379
v  -17.1385 -15.8429 -6.2379
v  -18.2384 -16.8901 -0.0000
v  -18.2384 -15.8429 -0.0000
v  -17.1385 -16.8901 6.2379
v  -17.1385 -15.8429 6.2379
v  -13.9715 -16.8901 11.7234
v  -13.9715 -15.8429 11.7234
v  -9.1192 -16.8901 15.7950
v  -9.1192 -15.8429 15.7950
v  -3.1671 -16.8901 17.9614
v  -3.1671 -15.8429 17.9614
v  3.1671 -16.8901 17.9614
v  3.1671 -15.8429 17.9614
v  9.1192 -16.8901 15.7950
v  9.1192 -15.8429 15.7950
v  13.9715 -16.8901 11.7235
v  13.9715 -15.8429 11.7235
v  17.1385 -16.8901 6.2379
v  17.1385 -15.8429 6.2379
v  15.0715 -15.6536 -5.4856
v  12.2864 -15.6536 -10.3095
v  8.0194 -15.6536 -13.8900
v  15.0715 -15.6536 5.4856
v  2.7851 -15.6536 -15.7951
v  -2.7851 -15.6536 -15.7951
v  -12.2864 -15.6536 -10.3095
v  -8.0194 -15.6536 -13.8900
v  -15.0715 -15.6536 -5.4856
v  -16.0387 -15.6536 -0.0000
v  -12.2864 -15.6536 10.3095
v  -15.0715 -15.6536 5.4856
v  -8.0194 -15.6536 13.8900
v  -2.7851 -15.6536 15.7951
v  8.0194 -15.6536 13.8900
v  2.7851 -15.6536 15.7951
v  12.2864 -15.6536 10.3095
v  16.0387 -15.6536 -0.0000
v  16.3505 16.8901 -5.9511
v  17.3998 16.8901 -0.0000
v  18.0866 16.8901 -0.0000
v  16.9958 16.8901 -6.1860
v  13.3290 16.8901 -11.1844
v  13.8551 16.8901 -11.6258
v  8.6999 16.8901 -15.0687
v  9.0433 16.8901 -15.6634
v  3.0214 16.8901 -17.1355
v  3.1407 16.8901 -17.8118
v  -3.0215 16.8901 -17.1355
v  -3.1407 16.8901 -17.8118
v  -8.6999 16.8901 -15.0687
v  -9.0433 16.8901 -15.6634
v  -13.3290 16.8901 -11.1844
v  -13.8551 16.8901 -11.6258
v  -16.3505 16.8901 -5.9511
v  -16.9958 16.8901 -6.1860
v  -17.3998 16.8901 -0.0000
v  -18.0866 16.8901 -0.0000
v  -16.3505 16.8901 5.9511
v  -16.9958 16.8901 6.1860
v  -13.3290 16.8901 11.1844
v  -13.8551 16.8901 11.6258
v  -8.6999 16.8901 15.0687
v  -9.0433 16.8901 15.6634
v  -3.0215 16.8901 17.1355
v  -3.1407 16.8901 17.8118
v  3.0214 16.8901 17.1355
v  3.1407 16.8901 17.8118
v  8.6999 16.8901 15.0687
v  9.0433 16.8901 15.6634
v  13.3290 16.8901 11.1844
v  13.8551 16.8901 11.6258
v  16.3505 16.8901 5.9511
v  16.9958 16.8901 6.1860
v  16.2078 16.8901 -5.8991
v  17.2480 16.8901 -0.0000
v  18.2384 16.8901 -0.0000
v  17.1385 16.8901 -6.2379
v  13.2127 16.8901 -11.0868
v  13.9715 16.8901 -11.7234
v  8.6240 16.8901 -14.9372
v  9.1192 16.8901 -15.7950
v  2.9951 16.8901 -16.9859
v  3.1671 16.8901 -17.9614
v  -2.9951 16.8901 -16.9859
v  -3.1671 16.8901 -17.9614
v  -8.6240 16.8901 -14.9372
v  -9.1192 16.8901 -15.7950
v  -13.2127 16.8901 -11.0868
v  -13.9715 16.8901 -11.7234
v  -16.2078 16.8901 -5.8991
v  -17.1385 16.8901 -6.2379
v  -17.2480 16.8901 -0.0000
v  -18.2384 16.8901 -0.0000
v  -16.2078 16.8901 5.8991
v  -17.1385 16.8901 6.2379
v  -13.2127 16.8901 11.0868
v  -13.9715 16.8901 11.7234
v  -8.6240 16.8901 14.9372
v  -9.1192 16.8901 15.7950
v  -2.9951 16.8901 16.9859
v  -3.1671 16.8901 17.9614
v  2.9951 16.8901 16.9859
v  3.1671 16.8901 17.9614
v  8.6240 16.8901 14.9372
v  9.1192 16.8901 15.7950
v  13.2127 16.8901 11.0868
v  13.9715 16.8901 11.7235
v  16.2078 16.8901 5.8992
v  17.1385 16.8901 6.2379
v  18.2384 16.6198 -0.0000
v  17.1385 16.6198 -6.2379
v  13.9715 16.6198 -11.7234
v  9.1192 16.6198 -15.7950
v  3.1671 16.6198 -17.9614
v  -3.1671 16.6198 -17.9614
v  -9.1192 16.6198 -15.7950
v  -13.9715 16.6198 -11.7234
v  -17.1385 16.6198 -6.2379
v  -18.2384 16.6198 -0.0000
v  -17.1385 16.6198 6.2379
v  -13.9715 16.6198 11.7234
v  -9.1192 16.6198 15.7950
v  -3.1671 16.6198 17.9614
v  3.1671 16.6198 17.9614
v  9.1192 16.6198 15.7950
v  13.9715 16.6198 11.7235
v  17.1385 16.6198 6.2379
v  16.2078 16.6524 -5.8991
v  17.2480 16.6524 -0.0000
v  13.2127 16.6524 -11.0868
v  8.6240 16.6524 -14.9372
v  2.9951 16.6524 -16.9859
v  -2.9951 16.6524 -16.9859
v  -8.6240 16.6524 -14.9372
v  -13.2127 16.6524 -11.0868
v  -16.2078 16.6524 -5.8991
v  -17.2480 16.6524 -0.0000
v  -16.2078 16.6524 5.8991
v  -13.2127 16.6524 11.0868
v  -8.6240 16.6524 14.9372
v  -2.9951 16.6524 16.9859
v  2.9951 16.6524 16.9859
v  8.6240 16.6524 14.9372
v  13.2127 16.6524 11.0868
v  16.2078 16.6524 5.8992
v  16.2078 -14.3461 -5.8991
v  17.2480 -14.3461 -0.0000
v  13.2127 -14.3461 -11.0868
v  8.6240 -14.3461 -14.9372
v  2.9951 -14.3461 -16.9859
v  -2.9951 -14.3461 -16.9859
v  -8.6240 -14.3461 -14.9372
v  -13.2127 -14.3461 -11.0868
v  -16.2078 -14.3461 -5.8991
v  -17.2480 -14.3461 -0.0000
v  -16.2078 -14.3461 5.8991
v  -13.2127 -14.3461 11.0868
v  -8.6240 -14.3461 14.9372
v  -2.9951 -14.3461 16.9859
v  2.9951 -14.3461 16.9859
v  8.6240 -14.3461 14.9372
v  13.2127 -14.3461 11.0868
v  16.2078 -14.3461 5.8992
v  16.2078 -15.6536 -5.8991
v  17.2480 -15.6536 -0.0000
v  13.2127 -15.6536 -11.0868
v  8.6240 -15.6536 -14.9372
v  2.9951 -15.6536 -16.9859
v  -2.9951 -15.6536 -16.9859
v  -8.6240 -15.6536 -14.9372
v  -13.2127 -15.6536 -11.0868
v  -16.2078 -15.6536 -5.8991
v  -17.2480 -15.6536 -0.0000
v  -16.2078 -15.6536 5.8991
v  -13.2127 -15.6536 11.0868
v  -8.6240 -15.6536 14.9372
v  -2.9951 -15.6536 16.9859
v  2.9951 -15.6536 16.9859
v  8.6240 -15.6536 14.9372
v  13.2127 -15.6536 11.0868
v  16.2078 -15.6536 5.8992
v  4.0125 -16.8901 -0.0000
v  3.7705 -16.8901 -1.3723
v  3.7705 -16.8901 1.3723
v  3.0737 -16.8901 2.5792
v  2.0062 -16.8901 3.4749
v  0.6968 -16.8901 3.9515
v  -0.6968 -16.8901 3.9515
v  -2.0062 -16.8901 3.4749
v  -3.0737 -16.8901 2.5792
v  -3.7705 -16.8901 1.3723
v  -4.0125 -16.8901 -0.0000
v  -3.7705 -16.8901 -1.3723
v  -3.0737 -16.8901 -2.5792
v  -2.0062 -16.8901 -3.4749
v  -0.6968 -16.8901 -3.9515
v  0.6968 -16.8901 -3.9515
v  2.0062 -16.8901 -3.4749
v  3.0737 -16.8901 -2.5792
v  -0.0000 -16.8901 -0.0000
# 217 vertices

vn 0.9397 0.0000 -0.3420
vn 1.0000 0.0000 0.0000
vn 0.7660 0.0000 -0.6428
vn 0.5000 0.0000 -0.8660
vn 0.1736 0.0000 -0.9848
vn -0.1736 0.0000 -0.9848
vn -0.5000 0.0000 -0.8660
vn -0.7660 0.0000 -0.6428
vn -0.9397 0.0000 -0.3420
vn -1.0000 0.0000 -0.0000
vn -0.9397 0.0000 0.3420
vn -0.7660 0.0000 0.6428
vn -0.5000 0.0000 0.8660
vn -0.1736 0.0000 0.9848
vn 0.1736 0.0000 0.9848
vn 0.5000 0.0000 0.8660
vn 0.7660 0.0000 0.6428
vn 0.9397 0.0000 0.3420
vn 0.0000 1.0000 -0.0000
vn -1.0000 -0.0000 -0.0000
vn 0.7660 -0.0000 0.6428
vn 0.9397 -0.0000 0.3420
vn 1.0000 0.0000 -0.0000
vn 1.0000 -0.0000 -0.0000
vn -0.6976 0.6700 0.2539
vn -0.7423 0.6700 -0.0000
vn -0.5687 0.6700 0.4772
vn -0.3712 0.6700 0.6429
vn -0.1289 0.6700 0.7311
vn 0.1289 0.6700 0.7311
vn 0.3712 0.6700 0.6429
vn 0.5687 0.6700 0.4772
vn 0.6976 0.6700 0.2539
vn 0.7423 0.6700 -0.0000
vn 0.6976 0.6700 -0.2539
vn 0.5687 0.6700 -0.4772
vn 0.3712 0.6700 -0.6429
vn 0.1289 0.6700 -0.7311
vn -0.1289 0.6700 -0.7311
vn -0.3712 0.6700 -0.6429
vn -0.5687 0.6700 -0.4772
vn -0.6976 0.6700 -0.2539
vn 0.0000 -1.0000 -0.0000
# 43 vertex normals

vt 0.8056 0.0000 1.0000
vt 0.8056 0.0310 1.0000
vt 0.7500 0.0310 1.0000
vt 0.7500 0.0000 1.0000
vt 0.8611 0.0000 1.0000
vt 0.8611 0.0310 1.0000
vt 0.9167 0.0000 1.0000
vt 0.9167 0.0310 1.0000
vt 0.9722 0.0000 1.0000
vt 0.9722 0.0310 1.0000
vt 1.0278 0.0000 1.0000
vt 1.0278 0.0310 1.0000
vt 0.0833 0.0000 1.0000
vt 0.0833 0.0310 1.0000
vt 0.0278 0.0310 1.0000
vt 0.0278 0.0000 1.0000
vt 0.1389 0.0000 1.0000
vt 0.1389 0.0310 1.0000
vt 0.1944 0.0000 1.0000
vt 0.1944 0.0310 1.0000
vt 0.2500 0.0000 1.0000
vt 0.2500 0.0310 1.0000
vt 0.3056 0.0000 1.0000
vt 0.3056 0.0310 1.0000
vt 0.3611 0.0000 1.0000
vt 0.3611 0.0310 1.0000
vt 0.4167 0.0000 1.0000
vt 0.4167 0.0310 1.0000
vt 0.4722 0.0000 1.0000
vt 0.4722 0.0310 1.0000
vt 0.5278 0.0000 1.0000
vt 0.5278 0.0310 1.0000
vt 0.5833 0.0000 1.0000
vt 0.5833 0.0310 1.0000
vt 0.6389 0.0000 1.0000
vt 0.6389 0.0310 1.0000
vt 0.6944 0.0000 1.0000
vt 0.6944 0.0310 1.0000
vt 0.3290 0.9698 0.2500
vt 0.1786 0.8830 0.2500
vt 0.0670 0.7500 0.2500
vt 0.6710 0.9698 0.2500
vt 0.0076 0.5868 0.2500
vt 0.0076 0.4132 0.2500
vt 0.1786 0.1170 0.2500
vt 0.0670 0.2500 0.2500
vt 0.3290 0.0302 0.2500
vt 0.5000 0.0000 0.2500
vt 0.8214 0.1170 0.2500
vt 0.6710 0.0302 0.2500
vt 0.9330 0.2500 0.2500
vt 0.9924 0.4132 0.2500
vt 0.9330 0.7500 0.2500
vt 0.9924 0.5868 0.2500
vt 0.8214 0.8830 0.2500
vt 0.5000 1.0000 0.2500
vt 0.8056 1.0000 1.0000
vt 0.7500 1.0000 1.0000
vt 0.7500 0.9920 1.0000
vt 0.8056 0.9920 1.0000
vt 0.8611 1.0000 1.0000
vt 0.8611 0.9920 1.0000
vt 0.9167 1.0000 1.0000
vt 0.9167 0.9920 1.0000
vt 0.9722 1.0000 1.0000
vt 0.9722 0.9920 1.0000
vt 1.0278 1.0000 1.0000
vt 1.0278 0.9920 1.0000
vt 0.0833 1.0000 1.0000
vt 0.0278 1.0000 1.0000
vt 0.0278 0.9920 1.0000
vt 0.0833 0.9920 1.0000
vt 0.1389 1.0000 1.0000
vt 0.1389 0.9920 1.0000
vt 0.1944 1.0000 1.0000
vt 0.1944 0.9920 1.0000
vt 0.2500 1.0000 1.0000
vt 0.2500 0.9920 1.0000
vt 0.3056 1.0000 1.0000
vt 0.3056 0.9920 1.0000
vt 0.3611 1.0000 1.0000
vt 0.3611 0.9920 1.0000
vt 0.4167 1.0000 1.0000
vt 0.4167 0.9920 1.0000
vt 0.4722 1.0000 1.0000
vt 0.4722 0.9920 1.0000
vt 0.5278 1.0000 1.0000
vt 0.5278 0.9920 1.0000
vt 0.5833 1.0000 1.0000
vt 0.5833 0.9920 1.0000
vt 0.6389 1.0000 1.0000
vt 0.6389 0.9920 1.0000
vt 0.6944 1.0000 1.0000
vt 0.6944 0.9920 1.0000
vt 0.5000 1.0000 -0.2500
vt 0.5000 0.6100 -0.2500
vt 0.4624 0.6034 -0.2500
vt 0.3290 0.9698 -0.2500
vt 0.6710 0.9698 -0.2500
vt 0.5376 0.6034 -0.2500
vt 0.8214 0.8830 -0.2500
vt 0.5707 0.5843 -0.2500
vt 0.9330 0.7500 -0.2500
vt 0.5953 0.5550 -0.2500
vt 0.9924 0.5868 -0.2500
vt 0.6083 0.5191 -0.2500
vt 0.9924 0.4132 -0.2500
vt 0.6083 0.4809 -0.2500
vt 0.9330 0.2500 -0.2500
vt 0.5953 0.4450 -0.2500
vt 0.8214 0.1170 -0.2500
vt 0.5707 0.4157 -0.2500
vt 0.6710 0.0302 -0.2500
vt 0.5376 0.3966 -0.2500
vt 0.5000 0.0000 -0.2500
vt 0.5000 0.3900 -0.2500
vt 0.3290 0.0302 -0.2500
vt 0.4624 0.3966 -0.2500
vt 0.1786 0.1170 -0.2500
vt 0.4293 0.4157 -0.2500
vt 0.0670 0.2500 -0.2500
vt 0.4047 0.4450 -0.2500
vt 0.0076 0.4132 -0.2500
vt 0.3917 0.4809 -0.2500
vt 0.0076 0.5868 -0.2500
vt 0.3917 0.5191 -0.2500
vt 0.0670 0.7500 -0.2500
vt 0.4047 0.5550 -0.2500
vt 0.1786 0.8830 -0.2500
vt 0.4293 0.5843 -0.2500
vt 0.5000 0.5000 -0.2500
# 131 texture coords

g GlassCup
usemtl 01___Default
s 9
f 1/1/1 2/2/1 3/3/2 4/4/2 
f 5/5/3 6/6/3 2/2/1 1/1/1 
f 7/7/4 8/8/4 6/6/3 5/5/3 
f 9/9/5 10/10/5 8/8/4 7/7/4 
f 11/11/6 12/12/6 10/10/5 9/9/5 
f 13/13/7 14/14/7 12/15/6 11/16/6 
f 15/17/8 16/18/8 14/14/7 13/13/7 
f 17/19/9 18/20/9 16/18/8 15/17/8 
f 19/21/10 20/22/10 18/20/9 17/19/9 
f 21/23/11 22/24/11 20/22/10 19/21/10 
f 23/25/12 24/26/12 22/24/11 21/23/11 
f 25/27/13 26/28/13 24/26/12 23/25/12 
f 27/29/14 28/30/14 26/28/13 25/27/13 
f 29/31/15 30/32/15 28/30/14 27/29/14 
f 31/33/16 32/34/16 30/32/15 29/31/15 
f 33/35/17 34/36/17 32/34/16 31/33/16 
f 35/37/18 36/38/18 34/36/17 33/35/17 
f 4/4/2 3/3/2 36/38/18 35/37/18 
s 1
f 37/39/19 38/40/19 39/41/19 40/42/19 
f 39/41/19 41/43/19 42/44/19 43/45/19 
f 42/44/19 44/46/19 43/45/19 
f 43/45/19 45/47/19 46/48/19 47/49/19 
f 46/48/19 48/50/19 47/49/19 
f 47/49/19 49/51/19 50/52/19 51/53/19 
f 50/52/19 52/54/19 51/53/19 
f 43/45/19 47/49/19 51/53/19 39/41/19 
f 51/53/19 53/55/19 40/42/19 39/41/19 
f 54/56/19 37/39/19 40/42/19 
s off
f 55/39/19 56/56/19 57/56/19 58/39/19 
f 59/40/19 55/39/19 58/39/19 60/40/19 
f 61/41/19 59/40/19 60/40/19 62/41/19 
f 63/43/19 61/41/19 62/41/19 64/43/19 
f 65/44/19 63/43/19 64/43/19 66/44/19 
f 67/46/19 65/44/19 66/44/19 68/46/19 
f 69/45/19 67/46/19 68/46/19 70/45/19 
f 71/47/19 69/45/19 70/45/19 72/47/19 
f 73/48/19 71/47/19 72/47/19 74/48/19 
f 75/50/19 73/48/19 74/48/19 76/50/19 
f 77/49/19 75/50/19 76/50/19 78/49/19 
f 79/51/19 77/49/19 78/49/19 80/51/19 
f 81/52/19 79/51/19 80/51/19 82/52/19 
f 83/54/19 81/52/19 82/52/19 84/54/19 
f 85/53/19 83/54/19 84/54/19 86/53/19 
f 87/55/19 85/53/19 86/53/19 88/55/19 
f 89/42/19 87/55/19 88/55/19 90/42/19 
f 56/56/19 89/42/19 90/42/19 57/56/19 
f 91/39/19 92/56/19 56/56/19 55/39/19 
f 93/56/19 94/39/19 58/39/19 57/56/19 
f 95/40/19 91/39/19 55/39/19 59/40/19 
f 94/39/19 96/40/19 60/40/19 58/39/19 
f 97/41/19 95/40/19 59/40/19 61/41/19 
f 96/40/19 98/41/19 62/41/19 60/40/19 
f 99/43/19 97/41/19 61/41/19 63/43/19 
f 98/41/19 100/43/19 64/43/19 62/41/19 
f 101/44/19 99/43/19 63/43/19 65/44/19 
f 100/43/19 102/44/19 66/44/19 64/43/19 
f 103/46/19 101/44/19 65/44/19 67/46/19 
f 102/44/19 104/46/19 68/46/19 66/44/19 
f 105/45/19 103/46/19 67/46/19 69/45/19 
f 104/46/19 106/45/19 70/45/19 68/46/19 
f 107/47/19 105/45/19 69/45/19 71/47/19 
f 106/45/19 108/47/19 72/47/19 70/45/19 
f 109/48/19 107/47/19 71/47/19 73/48/19 
f 108/47/19 110/48/19 74/48/19 72/47/19 
f 111/50/19 109/48/19 73/48/19 75/50/19 
f 110/48/19 112/50/19 76/50/19 74/48/19 
f 113/49/19 111/50/19 75/50/19 77/49/19 
f 112/50/19 114/49/19 78/49/19 76/50/19 
f 115/51/19 113/49/19 77/49/19 79/51/19 
f 114/49/19 116/51/19 80/51/19 78/49/19 
f 117/52/19 115/51/19 79/51/19 81/52/19 
f 116/51/19 118/52/19 82/52/19 80/51/19 
f 119/54/19 117/52/19 81/52/19 83/54/19 
f 118/52/19 120/54/19 84/54/19 82/52/19 
f 121/53/19 119/54/19 83/54/19 85/53/19 
f 120/54/19 122/53/19 86/53/19 84/54/19 
f 123/55/19 121/53/19 85/53/19 87/55/19 
f 122/53/19 124/55/19 88/55/19 86/53/19 
f 125/42/19 123/55/19 87/55/19 89/42/19 
f 124/55/19 126/42/19 90/42/19 88/55/19 
f 92/56/19 125/42/19 89/42/19 56/56/19 
f 126/42/19 93/56/19 57/56/19 90/42/19 
s 9
f 94/57/1 93/58/2 127/59/2 128/60/1 
f 96/61/3 94/57/1 128/60/1 129/62/3 
f 98/63/4 96/61/3 129/62/3 130/64/4 
f 100/65/5 98/63/4 130/64/4 131/66/5 
f 102/67/6 100/65/5 131/66/5 132/68/6 
f 104/69/7 102/70/6 132/71/6 133/72/7 
f 106/73/8 104/69/7 133/72/7 134/74/8 
f 108/75/9 106/73/8 134/74/8 135/76/9 
f 110/77/10 108/75/9 135/76/9 136/78/10 
f 112/79/11 110/77/10 136/78/10 137/80/11 
f 114/81/12 112/79/11 137/80/11 138/82/12 
f 116/83/13 114/81/12 138/82/12 139/84/13 
f 118/85/14 116/83/13 139/84/13 140/86/14 
f 120/87/15 118/85/14 140/86/14 141/88/15 
f 122/89/16 120/87/15 141/88/15 142/90/16 
f 124/91/17 122/89/16 142/90/16 143/92/17 
f 126/93/18 124/91/17 143/92/17 144/94/18 
f 93/58/2 126/93/18 144/94/18 127/59/2 
s 1
f 92/56/20 91/39/11 145/39/11 146/56/10 
f 91/39/11 95/40/12 147/40/12 145/39/11 
f 95/40/12 97/41/13 148/41/13 147/40/12 
f 97/41/13 99/43/14 149/43/14 148/41/13 
f 99/43/14 101/44/15 150/44/15 149/43/14 
f 101/44/15 103/46/16 151/46/16 150/44/15 
f 103/46/16 105/45/21 152/45/17 151/46/16 
f 105/45/21 107/47/22 153/47/22 152/45/17 
f 107/47/22 109/48/23 154/48/24 153/47/22 
f 109/48/23 111/50/1 155/50/1 154/48/24 
f 111/50/1 113/49/3 156/49/3 155/50/1 
f 113/49/3 115/51/4 157/51/4 156/49/3 
f 115/51/4 117/52/5 158/52/5 157/51/4 
f 117/52/5 119/54/6 159/54/6 158/52/5 
f 119/54/6 121/53/7 160/53/7 159/54/6 
f 121/53/7 123/55/8 161/55/8 160/53/7 
f 123/55/8 125/42/9 162/42/9 161/55/8 
f 125/42/9 92/56/20 146/56/10 162/42/9 
f 145/39/11 163/39/11 164/56/10 146/56/10 
f 147/40/12 165/40/12 163/39/11 145/39/11 
f 148/41/13 166/41/13 165/40/12 147/40/12 
f 149/43/14 167/43/14 166/41/13 148/41/13 
f 150/44/15 168/44/15 167/43/14 149/43/14 
f 151/46/16 169/46/16 168/44/15 150/44/15 
f 152/45/17 170/45/17 169/46/16 151/46/16 
f 153/47/22 171/47/18 170/45/17 152/45/17 
f 154/48/24 172/48/23 171/47/18 153/47/22 
f 155/50/1 173/50/1 172/48/23 154/48/24 
f 156/49/3 174/49/3 173/50/1 155/50/1 
f 157/51/4 175/51/4 174/49/3 156/49/3 
f 158/52/5 176/52/5 175/51/4 157/51/4 
f 159/54/6 177/54/6 176/52/5 158/52/5 
f 160/53/7 178/53/7 177/54/6 159/54/6 
f 161/55/8 179/55/8 178/53/7 160/53/7 
f 162/42/9 180/42/9 179/55/8 161/55/8 
f 146/56/10 164/56/10 180/42/9 162/42/9 
f 181/39/25 182/56/26 164/56/10 163/39/11 
f 183/40/27 181/39/25 163/39/11 165/40/12 
f 184/41/28 183/40/27 165/40/12 166/41/13 
f 185/43/29 184/41/28 166/41/13 167/43/14 
f 186/44/30 185/43/29 167/43/14 168/44/15 
f 187/46/31 186/44/30 168/44/15 169/46/16 
f 188/45/32 187/46/31 169/46/16 170/45/17 
f 189/47/33 188/45/32 170/45/17 171/47/18 
f 190/48/34 189/47/33 171/47/18 172/48/23 
f 191/50/35 190/48/34 172/48/23 173/50/1 
f 192/49/36 191/50/35 173/50/1 174/49/3 
f 193/51/37 192/49/36 174/49/3 175/51/4 
f 194/52/38 193/51/37 175/51/4 176/52/5 
f 195/54/39 194/52/38 176/52/5 177/54/6 
f 196/53/40 195/54/39 177/54/6 178/53/7 
f 197/55/41 196/53/40 178/53/7 179/55/8 
f 198/42/42 197/55/41 179/55/8 180/42/9 
f 182/56/26 198/42/42 180/42/9 164/56/10 
f 182/56/26 181/39/25 37/39/19 54/56/19 
f 181/39/25 183/40/27 38/40/19 37/39/19 
f 183/40/27 184/41/28 39/41/19 38/40/19 
f 184/41/28 185/43/29 41/43/19 39/41/19 
f 185/43/29 186/44/30 42/44/19 41/43/19 
f 186/44/30 187/46/31 44/46/19 42/44/19 
f 187/46/31 188/45/32 43/45/19 44/46/19 
f 188/45/32 189/47/33 45/47/19 43/45/19 
f 189/47/33 190/48/34 46/48/19 45/47/19 
f 190/48/34 191/50/35 48/50/19 46/48/19 
f 191/50/35 192/49/36 47/49/19 48/50/19 
f 192/49/36 193/51/37 49/51/19 47/49/19 
f 193/51/37 194/52/38 50/52/19 49/51/19 
f 194/52/38 195/54/39 52/54/19 50/52/19 
f 195/54/39 196/53/40 51/53/19 52/54/19 
f 196/53/40 197/55/41 53/55/19 51/53/19 
f 197/55/41 198/42/42 40/42/19 53/55/19 
f 198/42/42 182/56/26 54/56/19 40/42/19 
s off
f 4/95/43 199/96/43 200/97/43 1/98/43 
f 35/99/43 201/100/43 199/96/43 4/95/43 
f 33/101/43 202/102/43 201/100/43 35/99/43 
f 31/103/43 203/104/43 202/102/43 33/101/43 
f 29/105/43 204/106/43 203/104/43 31/103/43 
f 27/107/43 205/108/43 204/106/43 29/105/43 
f 25/109/43 206/110/43 205/108/43 27/107/43 
f 23/111/43 207/112/43 206/110/43 25/109/43 
f 21/113/43 208/114/43 207/112/43 23/111/43 
f 19/115/43 209/116/43 208/114/43 21/113/43 
f 17/117/43 210/118/43 209/116/43 19/115/43 
f 15/119/43 211/120/43 210/118/43 17/117/43 
f 13/121/43 212/122/43 211/120/43 15/119/43 
f 11/123/43 213/124/43 212/122/43 13/121/43 
f 9/125/43 214/126/43 213/124/43 11/123/43 
f 7/127/43 215/128/43 214/126/43 9/125/43 
f 5/129/43 216/130/43 215/128/43 7/127/43 
f 5/129/43 1/98/43 200/97/43 216/130/43 
s 9
f 128/60/1 127/59/2 3/3/2 2/2/1 
f 129/62/3 128/60/1 2/2/1 6/6/3 
f 130/64/4 129/62/3 6/6/3 8/8/4 
f 131/66/5 130/64/4 8/8/4 10/10/5 
f 132/68/6 131/66/5 10/10/5 12/12/6 
f 133/72/7 132/71/6 12/15/6 14/14/7 
f 134/74/8 133/72/7 14/14/7 16/18/8 
f 135/76/9 134/74/8 16/18/8 18/20/9 
f 136/78/10 135/76/9 18/20/9 20/22/10 
f 137/80/11 136/78/10 20/22/10 22/24/11 
f 138/82/12 137/80/11 22/24/11 24/26/12 
f 139/84/13 138/82/12 24/26/12 26/28/13 
f 140/86/14 139/84/13 26/28/13 28/30/14 
f 141/88/15 140/86/14 28/30/14 30/32/15 
f 142/90/16 141/88/15 30/32/15 32/34/16 
f 143/92/17 142/90/16 32/34/16 34/36/17 
f 144/94/18 143/92/17 34/36/17 36/38/18 
f 127/59/2 144/94/18 36/38/18 3/3/2 
s off
f 199/96/43 217/131/43 200/97/43 
f 201/100/43 217/131/43 199/96/43 
f 202/102/43 217/131/43 201/100/43 
f 203/104/43 217/131/43 202/102/43 
f 204/106/43 217/131/43 203/104/43 
f 205/108/43 217/131/43 204/106/43 
f 206/110/43 217/131/43 205/108/43 
f 207/112/43 217/131/43 206/110/43 
f 208/114/43 217/131/43 207/112/43 
f 209/116/43 217/131/43 208/114/43 
f 210/118/43 217/131/43 209/116/43 
f 211/120/43 217/131/43 210/118/43 
f 212/122/43 217/131/43 211/120/43 
f 213/124/43 217/131/43 212/122/43 
f 214/126/43 217/131/43 213/124/43 
f 215/128/43 217/131/43 214/126/43 
f 216/130/43 217/131/43 215/128/43 
f 200/97/43 217/131/43 216/130/43 
# 204 polygons - 22 triangles

