# 3ds Max Wavefront OBJ Exporter v0.97b - (c)2007 guruware
# File Created: 24.02.2015 13:11:10

mtllib LightSwitch_01.mtl

#
# object LightSwitch
#

v  -0.9499 -8.9688 -2.7181
v  0.4631 -8.9688 -2.7181
v  0.4631 -8.9688 -0.6013
v  -0.9499 -8.9688 -0.6013
v  0.4631 8.9688 -2.7181
v  -0.9499 8.9688 -2.7181
v  -0.9499 8.9688 -0.6013
v  0.4631 8.9688 -0.6013
v  0.9499 2.7867 -2.7181
v  0.9499 2.7867 -0.6013
v  0.5138 -1.3560 -0.6013
v  0.5138 -1.3560 -2.7181
v  -0.9499 -8.9688 -5.6045
v  0.4631 -8.9688 -5.6046
v  0.4631 -8.9688 0.6013
v  -0.9499 -8.9688 0.6013
v  0.4631 8.9688 -5.6045
v  -0.9499 8.9688 -5.6046
v  0.4631 2.8186 -0.6013
v  0.4631 2.8186 -2.7181
v  0.4631 -1.3880 -2.7181
v  0.4631 -1.3880 -0.6013
v  0.4631 -1.3880 -5.6046
v  0.4631 2.8186 -5.6046
v  0.4631 2.8186 0.6013
v  0.4631 -1.3880 0.6013
v  -0.9499 -8.9688 2.7181
v  0.4631 -8.9688 2.7181
v  0.4631 8.9688 2.7181
v  0.4631 8.9688 0.6013
v  -0.9499 8.9688 0.6013
v  -0.9499 8.9688 2.7181
v  0.9499 2.7867 2.7181
v  0.5138 -1.3560 2.7181
v  0.5138 -1.3560 0.6013
v  0.9499 2.7867 0.6013
v  -0.9499 -8.9688 5.6045
v  0.4631 -8.9688 5.6046
v  0.4631 8.9688 5.6045
v  -0.9499 8.9688 5.6046
v  0.4631 2.8186 2.7181
v  0.4631 -1.3880 2.7181
v  0.4631 -1.3880 5.6046
v  0.4631 2.8186 5.6046
v  -0.9499 -1.3880 -5.6046
v  -0.9499 -1.3880 5.6046
v  -0.9499 2.8186 5.6045
v  -0.9499 2.8186 -5.6045
# 48 vertices

vn 0.0000 -1.0000 -0.0000
vn 0.0000 1.0000 0.0000
vn -0.0000 1.0000 0.0000
vn 0.0000 1.0000 -0.0000
vn 0.9945 -0.1047 -0.0000
vn -0.0000 1.0000 -0.0000
vn 1.0000 0.0000 -0.0000
vn 0.0000 0.0000 -1.0000
vn 0.0655 0.9979 -0.0000
vn 0.0000 0.0000 1.0000
vn 0.5333 -0.8460 -0.0000
vn -0.0000 -0.0000 -1.0000
vn -0.0000 -0.0000 1.0000
vn -0.0000 0.0000 1.0000
vn -0.0000 0.0000 -1.0000
# 15 vertex normals

vt 1.0000 0.5932 0.0000
vt 0.0000 0.5932 0.0000
vt 0.0000 0.4068 0.0000
vt 1.0000 0.4068 0.0000
vt 0.5932 0.5932 0.0000
vt 0.4068 0.5932 0.0000
vt 0.4068 0.4068 0.0000
vt 0.5932 0.4068 0.0000
vt 1.0000 0.7966 0.0000
vt 0.0000 0.7966 0.0000
vt 0.5932 1.0000 0.0000
vt 0.4068 1.0000 0.0000
vt 0.4068 0.0000 0.0000
vt 0.5932 0.0000 0.0000
vt 0.7966 0.0000 0.0000
vt 0.7966 0.4068 0.0000
vt 0.7966 0.5932 0.0000
vt 0.7966 1.0000 0.0000
vt 0.2034 0.4068 0.0000
vt 0.2034 0.0000 0.0000
vt 0.2034 0.5932 0.0000
vt 0.2034 1.0000 0.0000
# 22 texture coords

g LightSwitch
usemtl 01___Default
s 2
f 1/1/1 2/2/1 3/3/1 4/4/1 
s 4
f 5/1/2 6/2/3 7/3/4 8/4/4 
s 16
f 9/5/5 10/6/5 11/7/5 12/8/5 
s 2
f 13/9/1 14/10/1 2/2/1 1/1/1 
f 15/3/1 16/4/1 4/4/1 3/3/1 
s 4
f 17/9/3 18/10/6 6/2/3 5/1/2 
s 16
f 5/11/7 8/12/7 19/6/7 20/5/7 
f 3/13/7 2/14/7 21/8/7 22/7/7 
f 2/14/7 14/15/7 23/16/7 21/8/7 
s off
f 21/8/8 20/5/8 9/5/8 12/8/8 
f 20/5/9 19/6/9 10/6/9 9/5/9 
f 19/6/10 22/7/10 11/7/10 10/6/10 
f 22/7/11 21/8/11 12/8/11 11/7/11 
s 16
f 20/5/7 21/8/7 23/16/7 24/17/7 
f 5/11/7 20/5/7 24/17/7 17/18/7 
f 22/7/7 19/6/7 25/6/7 26/7/7 
s 2
f 27/1/1 16/4/1 15/3/1 28/2/1 
s 4
f 29/1/4 30/4/4 31/3/4 32/2/6 
s 16
f 33/5/5 34/8/5 35/7/5 36/6/5 
s 2
f 37/9/1 27/1/1 28/2/1 38/10/1 
s 4
f 39/9/6 29/1/4 32/2/6 40/10/6 
f 31/3/4 30/4/4 8/4/4 7/3/4 
s 16
f 29/11/7 41/5/7 25/6/7 30/12/7 
f 15/13/7 26/7/7 42/8/7 28/14/7 
f 28/14/7 42/8/7 43/16/7 38/15/7 
f 25/6/7 19/6/7 8/12/7 30/12/7 
s off
f 42/8/10 34/8/10 33/5/10 41/5/10 
f 41/5/9 33/5/9 36/6/9 25/6/9 
f 25/6/12 36/6/12 35/7/12 26/7/12 
f 26/7/11 35/7/11 34/8/11 42/8/11 
s 16
f 41/5/7 44/17/7 43/16/7 42/8/7 
f 29/11/7 39/18/7 44/17/7 41/5/7 
f 22/7/7 26/7/7 15/13/7 3/13/7 
s off
f 45/19/12 23/16/12 14/15/12 13/9/12 
f 43/16/13 46/19/13 37/20/13 38/10/13 
f 39/18/10 40/10/10 47/21/10 44/17/10 
f 44/17/14 47/21/14 46/19/14 43/16/14 
f 18/22/8 17/9/8 24/17/8 48/21/8 
f 48/21/15 24/17/15 23/16/15 45/19/15 
# 39 polygons

