# 3ds Max Wavefront OBJ Exporter v0.97b - (c)2007 guruware
# File Created: 24.02.2015 13:10:15

mtllib Vial_01.mtl

#
# object Vial
#

v  14.9907 -41.0939 0.1691
v  14.0943 -41.0939 -4.9150
v  14.0943 39.6655 -4.9150
v  14.9907 39.6655 0.1691
v  11.5130 -41.0939 -9.3859
v  11.5130 39.6655 -9.3859
v  7.5582 -41.0939 -12.7043
v  7.5582 39.6655 -12.7043
v  2.7070 -41.0939 -14.4700
v  2.7070 39.6655 -14.4700
v  -2.4555 -41.0939 -14.4700
v  -2.4555 39.6655 -14.4700
v  -7.3067 -41.0939 -12.7043
v  -7.3067 39.6655 -12.7043
v  -11.2615 -41.0939 -9.3859
v  -11.2615 39.6655 -9.3859
v  -13.8427 -41.0939 -4.9150
v  -13.8427 39.6655 -4.9150
v  -14.7392 -41.0939 0.1691
v  -14.7392 39.6655 0.1691
v  -13.8427 -41.0939 5.2533
v  -13.8427 39.6655 5.2533
v  -11.2615 -41.0939 9.7242
v  -11.2615 39.6655 9.7242
v  -7.3067 -41.0939 13.0426
v  -7.3067 39.6655 13.0426
v  -2.4555 -41.0939 14.8083
v  -2.4555 39.6655 14.8083
v  2.7070 -41.0939 14.8083
v  2.7070 39.6655 14.8083
v  7.5582 -41.0939 13.0426
v  7.5582 39.6655 13.0426
v  11.5130 -41.0939 9.7242
v  11.5130 39.6655 9.7242
v  14.0943 -41.0939 5.2533
v  14.0943 39.6655 5.2533
v  0.1258 -41.0939 0.1691
v  16.5908 41.0939 -0.0000
v  15.5902 41.0939 5.6744
v  15.5902 21.3835 5.6744
v  16.5908 21.3835 0.0000
v  12.7093 41.0939 10.6643
v  12.7093 21.3835 10.6644
v  8.2954 41.0939 14.3680
v  8.2954 21.3835 14.3680
v  2.8810 41.0939 16.3387
v  2.8810 21.3835 16.3387
v  -2.8810 41.0939 16.3387
v  -2.8810 21.3835 16.3387
v  -8.2954 41.0939 14.3680
v  -8.2954 21.3835 14.3680
v  -12.7093 41.0939 10.6643
v  -12.7093 21.3835 10.6644
v  -15.5902 41.0939 5.6744
v  -15.5902 21.3835 5.6744
v  -16.5908 41.0939 -0.0000
v  -16.5908 21.3835 0.0000
v  -15.5902 41.0939 -5.6744
v  -15.5902 21.3835 -5.6744
v  -12.7093 41.0939 -10.6643
v  -12.7093 21.3835 -10.6643
v  -8.2954 41.0939 -14.3680
v  -8.2954 21.3835 -14.3680
v  -2.8810 41.0939 -16.3387
v  -2.8810 21.3835 -16.3387
v  2.8809 41.0939 -16.3387
v  2.8809 21.3835 -16.3387
v  8.2954 41.0939 -14.3680
v  8.2954 21.3835 -14.3680
v  12.7093 41.0939 -10.6644
v  12.7093 21.3835 -10.6643
v  15.5902 41.0939 -5.6744
v  15.5902 21.3835 -5.6744
v  -0.0000 41.0939 -0.0000
v  14.4341 21.3835 5.2536
v  15.3604 21.3835 0.0000
v  11.7668 21.3835 9.8735
v  7.6802 21.3835 13.3025
v  2.6673 21.3835 15.1271
v  -2.6673 21.3835 15.1271
v  -7.6802 21.3835 13.3025
v  -11.7668 21.3835 9.8735
v  -14.4341 21.3835 5.2536
v  -15.3604 21.3835 0.0000
v  -14.4341 21.3835 -5.2536
v  -11.7668 21.3835 -9.8735
v  -7.6802 21.3835 -13.3025
v  -2.6673 21.3835 -15.1270
v  2.6673 21.3835 -15.1270
v  7.6802 21.3835 -13.3025
v  11.7667 21.3835 -9.8735
v  14.4341 21.3835 -5.2536
# 92 vertices

vn 1.0000 0.0000 0.0000
vn 0.9397 -0.0000 -0.3420
vn 0.9397 0.0000 -0.3420
vn 1.0000 -0.0000 0.0000
vn 0.7660 -0.0000 -0.6428
vn 0.5000 0.0000 -0.8660
vn 0.5000 -0.0000 -0.8660
vn 0.1736 0.0000 -0.9848
vn -0.1736 0.0000 -0.9848
vn -0.5000 0.0000 -0.8660
vn -0.7660 0.0000 -0.6428
vn -0.9397 0.0000 -0.3420
vn -1.0000 0.0000 -0.0000
vn -0.9397 0.0000 0.3420
vn -0.7660 0.0000 0.6428
vn -0.5000 0.0000 0.8660
vn -0.1736 0.0000 0.9848
vn 0.1736 0.0000 0.9848
vn 0.5000 0.0000 0.8660
vn 0.7660 -0.0000 0.6428
vn 0.7660 0.0000 0.6428
vn 0.9397 -0.0000 0.3420
vn 0.0000 -1.0000 -0.0000
vn 1.0000 0.0000 -0.0000
vn 0.9397 0.0000 0.3420
vn -1.0000 -0.0000 0.0000
vn -1.0000 -0.0000 -0.0000
vn -0.9397 -0.0000 -0.3420
vn -0.7660 -0.0000 -0.6428
vn -0.5000 -0.0000 -0.8660
vn -0.1736 -0.0000 -0.9848
vn 0.1736 -0.0000 -0.9848
vn 0.0000 1.0000 -0.0000
vn -0.0000 1.0000 -0.0000
vn -0.0000 -1.0000 0.0000
vn -0.0000 -1.0000 -0.0000
vn 0.0000 -1.0000 0.0000
# 37 vertex normals

vt 0.7500 0.0000 1.0000
vt 0.8056 0.0000 1.0000
vt 0.8056 1.0000 1.0000
vt 0.7500 1.0000 1.0000
vt 0.8611 0.0000 1.0000
vt 0.8611 1.0000 1.0000
vt 0.9167 0.0000 1.0000
vt 0.9167 1.0000 1.0000
vt 0.9722 0.0000 1.0000
vt 0.9722 1.0000 1.0000
vt 1.0278 0.0000 1.0000
vt 1.0278 1.0000 1.0000
vt 0.0278 0.0000 1.0000
vt 0.0833 0.0000 1.0000
vt 0.0833 1.0000 1.0000
vt 0.0278 1.0000 1.0000
vt 0.1389 0.0000 1.0000
vt 0.1389 1.0000 1.0000
vt 0.1944 0.0000 1.0000
vt 0.1944 1.0000 1.0000
vt 0.2500 0.0000 1.0000
vt 0.2500 1.0000 1.0000
vt 0.3056 0.0000 1.0000
vt 0.3056 1.0000 1.0000
vt 0.3611 0.0000 1.0000
vt 0.3611 1.0000 1.0000
vt 0.4167 0.0000 1.0000
vt 0.4167 1.0000 1.0000
vt 0.4722 0.0000 1.0000
vt 0.4722 1.0000 1.0000
vt 0.5278 0.0000 1.0000
vt 0.5278 1.0000 1.0000
vt 0.5833 0.0000 1.0000
vt 0.5833 1.0000 1.0000
vt 0.6389 0.0000 1.0000
vt 0.6389 1.0000 1.0000
vt 0.6944 0.0000 1.0000
vt 0.6944 1.0000 1.0000
vt 0.3290 0.9698 -0.2500
vt 0.5000 1.0000 -0.2500
vt 0.5000 0.5000 -0.2500
vt 0.6710 0.9698 -0.2500
vt 0.8214 0.8830 -0.2500
vt 0.9330 0.7500 -0.2500
vt 0.9924 0.5868 -0.2500
vt 0.9924 0.4132 -0.2500
vt 0.9330 0.2500 -0.2500
vt 0.8214 0.1170 -0.2500
vt 0.6710 0.0302 -0.2500
vt 0.5000 0.0000 -0.2500
vt 0.3290 0.0302 -0.2500
vt 0.1786 0.1170 -0.2500
vt 0.0670 0.2500 -0.2500
vt 0.0076 0.4132 -0.2500
vt 0.0076 0.5868 -0.2500
vt 0.0670 0.7500 -0.2500
vt 0.1786 0.8830 -0.2500
# 57 texture coords

g Vial
usemtl 01___Default
s 8
f 1/1/1 2/2/2 3/3/3 4/4/4 
f 2/2/2 5/5/5 6/6/5 3/3/3 
f 5/5/5 7/7/6 8/8/7 6/6/5 
f 7/7/6 9/9/8 10/10/8 8/8/7 
f 9/9/8 11/11/9 12/12/9 10/10/8 
f 11/13/9 13/14/10 14/15/10 12/16/9 
f 13/14/10 15/17/11 16/18/11 14/15/10 
f 15/17/11 17/19/12 18/20/12 16/18/11 
f 17/19/12 19/21/13 20/22/13 18/20/12 
f 19/21/13 21/23/14 22/24/14 20/22/13 
f 21/23/14 23/25/15 24/26/15 22/24/14 
f 23/25/15 25/27/16 26/28/16 24/26/15 
f 25/27/16 27/29/17 28/30/17 26/28/16 
f 27/29/17 29/31/18 30/32/18 28/30/17 
f 29/31/18 31/33/19 32/34/19 30/32/18 
f 31/33/19 33/35/20 34/36/21 32/34/19 
f 33/35/20 35/37/22 36/38/22 34/36/21 
f 35/37/22 1/1/1 4/4/4 36/38/22 
s off
f 2/39/23 1/40/23 37/41/23 
f 1/40/23 35/42/23 37/41/23 
f 35/42/23 33/43/23 37/41/23 
f 33/43/23 31/44/23 37/41/23 
f 31/44/23 29/45/23 37/41/23 
f 29/45/23 27/46/23 37/41/23 
f 27/46/23 25/47/23 37/41/23 
f 25/47/23 23/48/23 37/41/23 
f 23/48/23 21/49/23 37/41/23 
f 21/49/23 19/50/23 37/41/23 
f 19/50/23 17/51/23 37/41/23 
f 17/51/23 15/52/23 37/41/23 
f 15/52/23 13/53/23 37/41/23 
f 13/53/23 11/54/23 37/41/23 
f 11/54/23 9/55/23 37/41/23 
f 9/55/23 7/56/23 37/41/23 
f 7/56/23 5/57/23 37/41/23 
f 5/57/23 2/39/23 37/41/23 
s 8
f 38/1/24 39/2/25 40/3/25 41/4/24 
f 39/2/25 42/5/21 43/6/21 40/3/25 
f 42/5/21 44/7/19 45/8/19 43/6/21 
f 44/7/19 46/9/18 47/10/18 45/8/19 
f 46/9/18 48/11/17 49/12/17 47/10/18 
f 48/13/17 50/14/16 51/15/16 49/16/17 
f 50/14/16 52/17/15 53/18/15 51/15/16 
f 52/17/15 54/19/14 55/20/14 53/18/15 
f 54/19/14 56/21/26 57/22/27 55/20/14 
f 56/21/26 58/23/28 59/24/28 57/22/27 
f 58/23/28 60/25/29 61/26/29 59/24/28 
f 60/25/29 62/27/30 63/28/30 61/26/29 
f 62/27/30 64/29/31 65/30/31 63/28/30 
f 64/29/31 66/31/32 67/32/32 65/30/31 
f 66/31/32 68/33/7 69/34/7 67/32/32 
f 68/33/7 70/35/5 71/36/5 69/34/7 
f 70/35/5 72/37/2 73/38/2 71/36/5 
f 72/37/2 38/1/24 41/4/24 73/38/2 
s off
f 39/39/33 38/40/33 74/41/33 
f 38/40/33 72/42/33 74/41/33 
f 72/42/33 70/43/33 74/41/33 
f 70/43/33 68/44/33 74/41/33 
f 68/44/33 66/45/33 74/41/33 
f 66/45/33 64/46/33 74/41/33 
f 64/46/33 62/47/33 74/41/33 
f 62/47/33 60/48/33 74/41/33 
f 60/48/33 58/49/33 74/41/33 
f 58/49/33 56/50/33 74/41/33 
f 56/50/33 54/51/33 74/41/33 
f 54/51/34 52/52/34 74/41/34 
f 52/52/33 50/53/33 74/41/33 
f 50/53/33 48/54/33 74/41/33 
f 48/54/33 46/55/33 74/41/33 
f 46/55/34 44/56/34 74/41/34 
f 44/56/34 42/57/34 74/41/34 
f 42/57/33 39/39/33 74/41/33 
f 41/4/35 40/3/35 75/3/35 76/4/35 
f 40/3/36 43/6/36 77/6/36 75/3/36 
f 43/6/36 45/8/36 78/8/36 77/6/36 
f 45/8/36 47/10/36 79/10/36 78/8/36 
f 47/10/23 49/12/23 80/12/23 79/10/23 
f 49/16/23 51/15/23 81/15/23 80/16/23 
f 51/15/23 53/18/23 82/18/23 81/15/23 
f 53/18/23 55/20/23 83/20/23 82/18/23 
f 55/20/37 57/22/37 84/22/37 83/20/37 
f 57/22/37 59/24/37 85/24/37 84/22/37 
f 59/24/37 61/26/37 86/26/37 85/24/37 
f 61/26/37 63/28/37 87/28/37 86/26/37 
f 63/28/35 65/30/35 88/30/35 87/28/35 
f 65/30/37 67/32/37 89/32/37 88/30/37 
f 67/32/37 69/34/37 90/34/37 89/32/37 
f 69/34/35 71/36/35 91/36/35 90/34/35 
f 71/36/35 73/38/35 92/38/35 91/36/35 
f 73/38/35 41/4/35 76/4/35 92/38/35 
# 54 polygons - 36 triangles

