# 3ds Max Wavefront OBJ Exporter v0.97b - (c)2007 guruware
# File Created: 24.02.2015 15:58:13

mtllib S_Cabinet.mtl

#
# object S_Cabinet
#

v  -37.8810 9.8217 -2.5510
v  -37.8810 64.3016 -2.5510
v  -37.8810 64.3016 -4.0355
v  -37.8810 9.8217 -4.0355
v  -1.0173 9.8217 -2.6010
v  -1.0173 9.8217 -4.0355
v  -1.0173 64.3016 -4.0355
v  -1.0173 64.3016 -2.6010
v  -36.9594 9.8217 -4.0355
v  -36.9594 64.3016 -4.0355
v  -36.8644 64.3016 -2.5510
v  -36.8644 9.8217 -2.5510
v  -37.8810 9.8217 43.3477
v  -37.8810 64.3016 43.3477
v  -37.8810 64.3016 41.8507
v  -37.8810 9.8217 41.8632
v  -1.0173 9.8217 43.3477
v  -1.0173 9.8217 41.9132
v  -1.0173 64.3016 41.9132
v  -1.0173 64.3016 43.3477
v  -36.8644 9.8217 41.8632
v  -36.8644 64.3016 41.8507
v  -36.9594 64.3016 43.3477
v  -36.9594 9.8217 43.3477
v  -1.1311 65.6554 -4.7707
v  -37.4191 65.6554 -4.8018
v  -37.5833 65.6554 44.1869
v  -1.2953 65.6554 44.2181
v  -39.3867 64.2205 -4.3667
v  -39.3867 64.8205 -4.3667
v  -37.5748 64.8205 -5.6955
v  -37.5748 64.2205 -5.6955
v  -39.4572 64.2205 43.5154
v  -39.4572 64.8205 43.5154
v  -0.8242 64.8205 -5.6357
v  -0.8242 64.2205 -5.6357
v  0.7428 64.8205 -4.0992
v  0.7428 64.2205 -4.0992
v  0.6723 64.8205 43.7829
v  0.6723 64.2205 43.7829
v  -1.1396 64.8205 45.1118
v  -1.1396 64.2205 45.1118
v  -37.8902 64.8205 45.0520
v  -37.8902 64.2205 45.0520
v  -1.5535 65.3654 44.4076
v  -37.3899 65.3654 44.3637
v  -0.2360 65.3654 43.4317
v  -0.1848 65.3654 -3.8194
v  -1.3245 65.3654 -4.9475
v  -37.1609 65.3654 -4.9913
v  -38.4785 65.3654 -4.0155
v  -38.5296 65.3654 43.2356
v  -0.3478 65.6554 43.5226
v  -0.3111 65.6554 -3.9672
v  -38.3666 65.6554 -4.1064
v  -38.4034 65.6554 43.3834
v  3.2523 9.8219 43.2163
v  -42.0083 9.8219 43.0771
v  -41.1882 9.8219 43.8806
v  2.3048 9.8219 43.9118
v  -42.9916 8.3870 -4.3685
v  -42.9916 8.9870 -4.3685
v  -41.1798 8.9870 -5.6974
v  -41.1798 8.3870 -5.6974
v  -43.0622 8.3870 43.2091
v  -43.0622 8.9870 43.2092
v  2.7759 8.9870 -5.6376
v  2.7759 8.3870 -5.6376
v  4.3429 8.9870 -4.1011
v  4.3429 8.3870 -4.1011
v  4.2724 8.9870 43.4766
v  4.2724 8.3870 43.4766
v  2.4605 8.9870 44.8055
v  2.4605 8.3870 44.8055
v  -41.4951 8.9870 44.7457
v  -41.4951 8.3870 44.7457
v  3.2890 9.8219 -3.9690
v  2.4690 9.8219 -4.7725
v  -41.0241 9.8219 -4.8037
v  -41.9716 9.8219 -4.1082
v  0.4573 1.1002 36.3251
v  0.7364 2.5301 36.0505
v  0.7364 2.5301 39.6051
v  0.4573 1.1002 39.3306
v  -0.6771 1.1002 35.1498
v  -0.3324 2.5253 34.6751
v  -3.5627 1.1002 34.3462
v  -3.6381 2.5355 33.7827
v  -6.3444 1.1002 35.6810
v  -6.6731 2.5263 35.2923
v  -7.1815 1.1002 38.6020
v  -7.4104 2.5343 38.7436
v  -5.0196 1.1002 40.9084
v  -5.3258 2.5279 41.4369
v  -2.0991 1.1002 41.1763
v  -1.8877 2.5322 41.7309
v  0.8760 5.4773 35.9133
v  0.8760 5.4773 39.7424
v  -0.1600 5.4797 34.4377
v  -3.6758 5.4747 33.5010
v  -6.8374 5.4793 35.0979
v  -7.5249 5.4752 38.8143
v  -5.4790 5.4784 41.7011
v  -1.7820 5.4763 42.0082
v  0.4573 8.3746 36.3251
v  0.4573 8.3746 39.3306
v  -0.6771 8.3746 35.1498
v  -3.5627 8.3746 34.3462
v  -6.3444 8.3746 35.6810
v  -7.1815 8.3746 38.6020
v  -5.0196 8.3746 40.9084
v  -2.0991 8.3746 41.1763
v  -31.4325 1.1002 36.3251
v  -31.1534 2.5301 36.0505
v  -31.1534 2.5301 39.6051
v  -31.4325 1.1002 39.3306
v  -32.5669 1.1002 35.1498
v  -32.2222 2.5253 34.6751
v  -35.4524 1.1002 34.3462
v  -35.5278 2.5355 33.7827
v  -38.2342 1.1002 35.6810
v  -38.5629 2.5263 35.2923
v  -39.0713 1.1002 38.6020
v  -39.3002 2.5343 38.7436
v  -36.9093 1.1002 40.9084
v  -37.2156 2.5279 41.4369
v  -33.9889 1.1002 41.1763
v  -33.7775 2.5322 41.7309
v  -31.0138 5.4773 35.9133
v  -31.0138 5.4773 39.7424
v  -32.0498 5.4797 34.4377
v  -35.5655 5.4747 33.5010
v  -38.7272 5.4793 35.0979
v  -39.4146 5.4752 38.8143
v  -37.3687 5.4784 41.7011
v  -33.6718 5.4763 42.0082
v  -31.4325 8.3746 36.3251
v  -31.4325 8.3746 39.3306
v  -32.5669 8.3746 35.1498
v  -35.4524 8.3746 34.3462
v  -38.2342 8.3746 35.6810
v  -39.0713 8.3746 38.6020
v  -36.9093 8.3746 40.9084
v  -33.9889 8.3746 41.1763
v  -31.4325 1.1002 -0.6614
v  -31.1534 2.5301 -0.9359
v  -31.1534 2.5301 2.6187
v  -31.4325 1.1002 2.3442
v  -32.5669 1.1002 -1.8366
v  -32.2222 2.5253 -2.3114
v  -35.4524 1.1002 -2.6402
v  -35.5278 2.5355 -3.2037
v  -38.2342 1.1002 -1.3054
v  -38.5629 2.5263 -1.6941
v  -39.0713 1.1002 1.6156
v  -39.3002 2.5343 1.7571
v  -36.9093 1.1002 3.9220
v  -37.2156 2.5279 4.4505
v  -33.9889 1.1002 4.1899
v  -33.7775 2.5322 4.7445
v  -31.0138 5.4773 -1.0731
v  -31.0138 5.4773 2.7560
v  -32.0498 5.4797 -2.5487
v  -35.5655 5.4747 -3.4854
v  -38.7272 5.4793 -1.8885
v  -39.4146 5.4752 1.8279
v  -37.3687 5.4784 4.7147
v  -33.6718 5.4763 5.0218
v  -31.4325 8.3746 -0.6614
v  -31.4325 8.3746 2.3442
v  -32.5669 8.3746 -1.8366
v  -35.4524 8.3746 -2.6402
v  -38.2342 8.3746 -1.3054
v  -39.0713 8.3746 1.6156
v  -36.9093 8.3746 3.9220
v  -33.9889 8.3746 4.1899
v  0.3547 1.1002 -0.6614
v  0.6338 2.5301 -0.9359
v  0.6338 2.5301 2.6187
v  0.3547 1.1002 2.3442
v  -0.7797 1.1002 -1.8366
v  -0.4350 2.5253 -2.3114
v  -3.6652 1.1002 -2.6402
v  -3.7406 2.5355 -3.2037
v  -6.4470 1.1002 -1.3054
v  -6.7757 2.5263 -1.6941
v  -7.2841 1.1002 1.6156
v  -7.5130 2.5343 1.7571
v  -5.1221 1.1002 3.9220
v  -5.4284 2.5279 4.4505
v  -2.2017 1.1002 4.1899
v  -1.9903 2.5322 4.7445
v  0.7734 5.4773 -1.0731
v  0.7734 5.4773 2.7560
v  -0.2626 5.4797 -2.5487
v  -3.7783 5.4747 -3.4854
v  -6.9400 5.4793 -1.8885
v  -7.6274 5.4752 1.8279
v  -5.5815 5.4784 4.7147
v  -1.8846 5.4763 5.0218
v  0.3547 8.3746 -0.6614
v  0.3547 8.3746 2.3442
v  -0.7797 8.3746 -1.8366
v  -3.6652 8.3746 -2.6402
v  -6.4470 8.3746 -1.3054
v  -7.2841 8.3746 1.6156
v  -5.1221 8.3746 3.9220
v  -2.2017 8.3746 4.1899
# 208 vertices

vn -1.0000 0.0000 0.0000
vn 1.0000 -0.0000 -0.0000
vn -0.0000 0.0000 -1.0000
vn 0.0000 0.0000 -1.0000
vn 0.0014 -0.0000 1.0000
vn 0.0015 -0.0001 -1.0000
vn 0.0017 -0.0002 -1.0000
vn 0.0016 -0.0001 -1.0000
vn 0.0014 -0.0000 -1.0000
vn 0.0000 0.0000 1.0000
vn 0.0000 -1.0000 0.0000
vn 0.0000 -1.0000 -0.0000
vn 0.0000 1.0000 0.0000
vn 0.0000 1.0000 -0.0000
vn -0.0000 -1.0000 0.0000
vn -0.8917 0.0000 -0.4526
vn -0.3104 0.0000 -0.9506
vn -0.9223 0.0000 0.3865
vn 0.3789 -0.0000 -0.9254
vn 0.9223 -0.0000 -0.3865
vn 0.8917 0.0000 0.4526
vn 0.3104 0.0000 0.9506
vn -0.3789 0.0000 0.9254
vn -0.2264 0.8376 0.4973
vn 0.1900 0.8279 0.5277
vn 0.1597 0.6779 0.7176
vn -0.2034 0.6748 0.7094
vn 0.4406 0.8719 0.2135
vn 0.6788 0.6681 0.3047
vn 0.4574 0.8704 -0.1821
vn 0.7025 0.6686 -0.2441
vn 0.2261 0.8370 -0.4983
vn 0.2027 0.6750 -0.7094
vn -0.1900 0.8279 -0.5277
vn -0.1597 0.6779 -0.7176
vn -0.4406 0.8719 -0.2135
vn -0.6788 0.6681 -0.3047
vn -0.4566 0.8708 0.1824
vn -0.7025 0.6682 0.2450
vn 0.8190 0.1433 0.5556
vn 0.4575 0.1638 0.8740
vn 0.8510 0.1087 -0.5138
vn 0.5322 0.1513 -0.8330
vn -0.4575 0.1638 -0.8740
vn -0.8190 0.1433 -0.5556
vn -0.8510 0.1087 0.5138
vn -0.5322 0.1513 0.8330
vn -0.0000 -1.0000 -0.0000
vn 0.3612 0.9067 0.2181
vn -0.3678 0.9109 0.1870
vn -0.1686 0.9013 0.3990
vn 0.1436 0.9041 0.4024
vn -0.8265 0.3894 -0.4064
vn -0.2824 0.3735 -0.8836
vn -0.3105 0.0000 -0.9506
vn -0.8525 0.3944 0.3432
vn 0.3494 0.3722 -0.8599
vn 0.3788 -0.0000 -0.9255
vn 0.8524 0.3944 -0.3432
vn 0.8265 0.3894 0.4064
vn 0.2825 0.3734 0.8836
vn 0.3105 0.0000 0.9506
vn -0.3494 0.3721 0.8599
vn -0.3788 0.0000 0.9255
vn 0.3678 0.9109 -0.1871
vn 0.1685 0.9013 -0.3991
vn -0.1434 0.9041 -0.4024
vn -0.3611 0.9067 -0.2180
vn 0.9129 -0.2659 -0.3098
vn 0.9339 -0.1534 -0.3230
vn 0.8837 -0.1633 0.4386
vn 0.8729 -0.2507 0.4185
vn 0.4661 -0.3766 -0.8006
vn 0.5305 -0.2229 -0.8179
vn -0.0828 -0.3644 -0.9275
vn -0.0967 -0.2276 -0.9689
vn -0.7550 -0.3088 -0.5784
vn -0.7725 -0.2003 -0.6026
vn -0.9635 -0.2018 0.1761
vn -0.9701 -0.1233 0.2092
vn -0.3959 -0.3905 0.8311
vn -0.4541 -0.2291 0.8610
vn 0.2569 -0.3672 0.8940
vn 0.2896 -0.2333 0.9283
vn 0.9438 0.0751 -0.3219
vn 0.9002 0.0579 0.4316
vn 0.5680 0.0976 -0.8172
vn -0.1016 0.0879 -0.9909
vn -0.7855 0.0685 -0.6150
vn -0.9704 0.0584 0.2343
vn -0.4892 0.1011 0.8663
vn 0.2987 0.0839 0.9507
vn 0.9186 0.1825 -0.3504
vn 0.8886 0.2091 0.4082
vn 0.5138 0.2608 -0.8173
vn -0.0846 0.2849 -0.9548
vn -0.7498 0.2561 -0.6101
vn -0.9554 0.1612 0.2473
vn -0.4545 0.2658 0.8501
vn 0.2482 0.2945 0.9229
# 100 vertex normals

vt 0.3238 0.4591 0.0000
vt 0.3238 0.8995 0.0000
vt 0.3122 0.8995 0.0000
vt 0.3122 0.4591 0.0000
vt 0.0028 0.4591 0.0000
vt 0.0144 0.4591 0.0000
vt 0.0144 0.8995 0.0000
vt 0.0028 0.8995 0.0000
vt 0.3048 0.4591 0.0000
vt 0.3048 0.8995 0.0000
vt 0.3320 0.8995 0.0000
vt 0.3320 0.4591 0.0000
vt 0.6216 0.4591 0.0000
vt 0.6216 0.8995 0.0000
vt 0.3040 0.4591 0.0000
vt 0.3040 0.8995 0.0000
vt 0.3313 0.8995 0.0000
vt 0.3313 0.4591 0.0000
vt 0.9719 0.8968 0.0000
vt 0.5890 0.8970 0.0000
vt 0.5876 0.4663 0.0000
vt 0.9706 0.4661 0.0000
vt 0.4856 0.0180 0.0000
vt 0.4808 0.0199 0.0000
vt 0.4666 0.0074 0.0000
vt 0.4677 0.0026 0.0000
vt 0.5632 0.4254 0.0000
vt 0.5581 0.4258 0.0000
vt 0.1011 0.0097 0.0000
vt 0.0996 0.0050 0.0000
vt 0.0880 0.0238 0.0000
vt 0.0828 0.0220 0.0000
vt 0.0075 0.4555 0.0000
vt 0.0020 0.4555 0.0000
vt 0.0168 0.4746 0.0000
vt 0.0136 0.4794 0.0000
vt 0.4184 0.6292 0.0000
vt 0.4183 0.6350 0.0000
vt 0.4399 0.6309 0.0000
vt 0.4387 0.6250 0.0000
vt 0.0249 0.4694 0.0000
vt 0.4149 0.6197 0.0000
vt 0.0179 0.4547 0.0000
vt 0.0976 0.0279 0.0000
vt 0.1067 0.0163 0.0000
vt 0.4619 0.0141 0.0000
vt 0.4719 0.0242 0.0000
vt 0.5483 0.4255 0.0000
vt 0.5484 0.4253 0.0000
vt 0.5579 0.4260 0.0000
vt 0.5499 0.4430 0.0000
vt 0.5424 0.4380 0.0000
vt 0.0210 0.4557 0.0000
vt 0.0265 0.4672 0.0000
vt 0.1010 0.0275 0.0000
vt 0.1079 0.0191 0.0000
vt 0.4614 0.0162 0.0000
vt 0.4689 0.0244 0.0000
vt 0.5454 0.4271 0.0000
vt 0.4279 0.6125 0.0000
vt 0.4154 0.6161 0.0000
vt 0.4248 0.6109 0.0000
vt 0.4150 0.6161 0.0000
vt 0.9812 0.4489 0.0000
vt 0.5942 0.4483 0.0000
vt 0.5970 0.0022 0.0000
vt 0.9840 0.0027 0.0000
vt 0.9978 0.0162 0.0000
vt 0.9972 0.4372 0.0000
vt 0.5804 0.4348 0.0000
vt 0.5810 0.0139 0.0000
vt 0.5806 0.8909 0.0000
vt 0.5804 0.4734 0.0000
vt 0.9789 0.4723 0.0000
vt 0.9792 0.8897 0.0000
vt 0.4251 0.6104 0.0000
vt 0.4371 0.6201 0.0000
vt 0.5686 0.0020 0.0000
vt 0.5686 0.0599 0.0000
vt 0.4370 0.0599 0.0000
vt 0.4370 0.0020 0.0000
vt 0.6374 0.0020 0.0000
vt 0.6374 0.0599 0.0000
vt 0.7680 0.0020 0.0000
vt 0.7680 0.0599 0.0000
vt 0.9029 0.0020 0.0000
vt 0.9029 0.0599 0.0000
vt -0.0691 -0.0049 0.0000
vt 0.0324 0.0015 0.0000
vt 0.0332 0.0599 0.0000
vt -0.0833 0.0535 0.0000
vt 0.0332 0.0020 0.0000
vt 0.1691 0.0020 0.0000
vt 0.1691 0.0599 0.0000
vt 0.2999 0.0020 0.0000
vt 0.2999 0.0599 0.0000
vt 0.5686 0.1816 0.0000
vt 0.4370 0.1816 0.0000
vt 0.6374 0.1816 0.0000
vt 0.7680 0.1816 0.0000
vt 0.9029 0.1816 0.0000
vt -0.0774 0.0586 0.0000
vt 0.0309 0.0597 0.0000
vt 0.0328 0.1817 0.0000
vt -0.0832 0.1811 0.0000
vt 0.1691 0.1816 0.0000
vt 0.0332 0.1816 0.0000
vt 0.2999 0.1816 0.0000
vt 0.5686 0.2983 0.0000
vt 0.4370 0.2983 0.0000
vt 0.6374 0.2983 0.0000
vt 0.7680 0.2983 0.0000
vt 0.9029 0.2983 0.0000
vt -0.0859 0.1844 0.0000
vt 0.0270 0.3008 0.0000
vt -0.0690 0.3044 0.0000
vt 0.1691 0.2983 0.0000
vt 0.0332 0.2983 0.0000
vt 0.2999 0.2983 0.0000
# 119 texture coords

g S_Cabinet
usemtl 01___Default
s 2
f 1/1/1 2/2/1 3/3/1 4/4/1 
s 4
f 5/5/2 6/6/2 7/7/2 8/8/2 
s 16
f 9/9/3 10/10/3 7/7/4 6/6/3 
s 64
f 11/11/5 12/12/5 5/13/5 8/14/5 
s 2
f 13/1/1 14/2/1 15/3/1 16/4/1 
s 4
f 17/5/2 18/6/2 19/7/2 20/8/2 
s 16
f 21/15/6 22/16/7 19/7/8 18/6/9 
s 64
f 23/17/10 24/18/10 17/13/10 20/14/10 
s 1
f 1/1/11 12/1/11 21/1/12 16/1/12 
s 4
f 12/12/2 11/11/2 22/16/2 21/15/2 
s 1
f 11/1/13 2/1/13 15/1/13 22/1/13 
s 4
f 2/2/1 1/1/1 16/4/1 15/3/1 
s off
f 11/1/14 10/10/14 3/3/14 2/2/14 
s 16
f 4/4/3 3/3/3 10/10/3 9/9/3 
s off
f 11/1/14 8/14/14 7/7/14 10/10/14 
f 9/9/12 12/12/12 1/1/12 4/4/12 
f 6/6/11 5/5/11 12/12/11 9/9/11 
f 23/17/14 22/16/14 15/1/14 14/2/14 
s 64
f 14/2/10 13/1/10 24/18/10 23/17/10 
s off
f 20/14/13 19/7/13 22/16/13 23/17/13 
f 16/4/11 21/1/11 24/18/11 13/1/11 
f 18/6/15 17/5/15 24/18/15 21/1/15 
s 1
f 25/19/13 26/20/14 27/21/13 28/22/13 
s 2
f 29/23/16 30/24/16 31/25/17 32/26/17 
f 29/23/16 33/27/18 34/28/18 30/24/16 
f 32/26/17 31/25/17 35/29/19 36/30/19 
f 36/30/19 35/29/19 37/31/20 38/32/20 
f 38/32/20 37/31/20 39/33/21 40/34/21 
f 40/34/21 39/33/21 41/35/22 42/36/22 
f 42/36/22 41/35/22 43/37/23 44/38/23 
f 33/39/18 44/38/23 43/37/23 34/40/18 
s 5
f 43/37/24 41/35/25 45/41/26 46/42/27 
f 41/35/25 39/33/28 47/43/29 45/41/26 
f 47/43/29 39/33/28 37/31/30 48/44/31 
f 37/31/30 35/29/32 49/45/33 48/44/31 
f 35/29/32 31/25/34 50/46/35 49/45/33 
f 31/25/34 30/24/36 51/47/37 50/46/35 
f 51/47/37 30/24/36 34/28/38 52/48/39 
f 52/49/39 34/50/38 43/51/24 46/52/27 
s 6
f 45/41/26 47/43/29 53/53/40 28/54/41 
f 47/43/29 48/44/31 54/55/42 53/53/40 
f 48/44/31 49/45/33 25/56/43 54/55/42 
f 25/56/43 49/45/33 50/46/35 26/57/44 
f 50/46/35 51/47/37 55/58/45 26/57/44 
f 51/47/37 52/48/39 56/59/46 55/58/45 
f 52/60/39 46/42/27 27/61/47 56/62/46 
f 27/63/47 46/42/27 45/41/26 28/54/41 
s off
f 32/64/48 36/65/48 42/66/48 44/67/48 
f 33/68/48 29/69/48 32/64/48 44/67/48 
f 38/70/15 40/71/15 42/66/15 36/65/15 
s 1
f 55/72/14 56/73/14 27/21/13 26/20/14 
f 53/74/13 54/75/13 25/19/13 28/22/13 
f 57/74/49 58/73/50 59/21/51 60/22/52 
s 2
f 61/23/16 62/24/53 63/25/54 64/26/55 
f 65/27/18 66/28/56 62/24/53 61/23/16 
f 64/26/55 63/25/54 67/29/57 68/30/58 
f 68/30/58 67/29/57 69/31/59 70/32/20 
f 70/32/20 69/31/59 71/33/60 72/34/21 
f 72/34/21 71/33/60 73/35/61 74/36/62 
f 74/36/62 73/35/61 75/37/63 76/38/64 
f 65/39/18 76/38/64 75/37/63 66/40/56 
s 7
f 59/63/51 75/37/63 73/35/61 60/54/52 
f 57/53/49 60/54/52 73/35/61 71/33/60 
f 57/53/49 71/33/60 69/31/59 77/55/65 
f 78/56/66 77/55/65 69/31/59 67/29/57 
f 79/57/67 78/56/66 67/29/57 63/25/54 
f 79/57/67 63/25/54 62/24/53 80/58/68 
f 80/58/68 62/24/53 66/28/56 58/59/50 
f 58/76/50 66/77/56 75/37/63 59/63/51 
s off
f 64/64/48 68/65/48 74/66/48 76/67/48 
s 1
f 78/19/66 79/20/67 80/72/68 77/75/65 
f 57/74/49 77/75/65 80/72/68 58/73/50 
s off
f 70/70/12 72/71/12 74/66/12 68/65/12 
f 65/68/48 61/69/48 64/64/48 76/67/48 
s 1
f 81/78/69 82/79/70 83/80/71 84/81/72 
s 3
f 81/78/69 85/82/73 86/83/74 82/79/70 
s 1
f 85/82/73 87/84/75 88/85/76 86/83/74 
s 3
f 87/84/75 89/86/77 90/87/78 88/85/76 
s 1
f 89/88/77 91/89/79 92/90/80 90/91/78 
s 3
f 91/92/79 93/93/81 94/94/82 92/90/80 
s 1
f 93/93/81 95/95/83 96/96/84 94/94/82 
s 3
f 95/95/83 84/81/72 83/80/71 96/96/84 
s 1
f 97/97/85 98/98/86 83/80/71 82/79/70 
s 3
f 82/79/70 86/83/74 99/99/87 97/97/85 
s 1
f 86/83/74 88/85/76 100/100/88 99/99/87 
s 3
f 88/85/76 90/87/78 101/101/89 100/100/88 
s 1
f 90/102/78 92/103/80 102/104/90 101/105/89 
s 3
f 92/90/80 94/94/82 103/106/91 102/107/90 
s 1
f 94/94/82 96/96/84 104/108/92 103/106/91 
s 3
f 96/96/84 83/80/71 98/98/86 104/108/92 
s 1
f 105/109/93 106/110/94 98/98/86 97/97/85 
s 3
f 97/97/85 99/99/87 107/111/95 105/109/93 
s 1
f 99/99/87 100/100/88 108/112/96 107/111/95 
s 3
f 100/100/88 101/101/89 109/113/97 108/112/96 
s 1
f 101/114/89 102/107/90 110/115/98 109/116/97 
s 3
f 102/107/90 103/106/91 111/117/99 110/118/98 
s 1
f 103/106/91 104/108/92 112/119/100 111/117/99 
s 3
f 104/108/92 98/98/86 106/110/94 112/119/100 
s 1
f 113/78/69 114/79/70 115/80/71 116/81/72 
s 3
f 113/78/69 117/82/73 118/83/74 114/79/70 
s 1
f 117/82/73 119/84/75 120/85/76 118/83/74 
s 3
f 119/84/75 121/86/77 122/87/78 120/85/76 
s 1
f 121/88/77 123/89/79 124/90/80 122/91/78 
s 3
f 123/92/79 125/93/81 126/94/82 124/90/80 
s 1
f 125/93/81 127/95/83 128/96/84 126/94/82 
s 3
f 127/95/83 116/81/72 115/80/71 128/96/84 
s 1
f 129/97/85 130/98/86 115/80/71 114/79/70 
s 3
f 114/79/70 118/83/74 131/99/87 129/97/85 
s 1
f 118/83/74 120/85/76 132/100/88 131/99/87 
s 3
f 120/85/76 122/87/78 133/101/89 132/100/88 
s 1
f 122/102/78 124/103/80 134/104/90 133/105/89 
s 3
f 124/90/80 126/94/82 135/106/91 134/107/90 
s 1
f 126/94/82 128/96/84 136/108/92 135/106/91 
s 3
f 128/96/84 115/80/71 130/98/86 136/108/92 
s 1
f 137/109/93 138/110/94 130/98/86 129/97/85 
s 3
f 129/97/85 131/99/87 139/111/95 137/109/93 
s 1
f 131/99/87 132/100/88 140/112/96 139/111/95 
s 3
f 132/100/88 133/101/89 141/113/97 140/112/96 
s 1
f 133/114/89 134/107/90 142/115/98 141/116/97 
s 3
f 134/107/90 135/106/91 143/117/99 142/118/98 
s 1
f 135/106/91 136/108/92 144/119/100 143/117/99 
s 3
f 136/108/92 130/98/86 138/110/94 144/119/100 
s 1
f 145/78/69 146/79/70 147/80/71 148/81/72 
s 3
f 145/78/69 149/82/73 150/83/74 146/79/70 
s 1
f 149/82/73 151/84/75 152/85/76 150/83/74 
s 3
f 151/84/75 153/86/77 154/87/78 152/85/76 
s 1
f 153/88/77 155/89/79 156/90/80 154/91/78 
s 3
f 155/92/79 157/93/81 158/94/82 156/90/80 
s 1
f 157/93/81 159/95/83 160/96/84 158/94/82 
s 3
f 159/95/83 148/81/72 147/80/71 160/96/84 
s 1
f 161/97/85 162/98/86 147/80/71 146/79/70 
s 3
f 146/79/70 150/83/74 163/99/87 161/97/85 
s 1
f 150/83/74 152/85/76 164/100/88 163/99/87 
s 3
f 152/85/76 154/87/78 165/101/89 164/100/88 
s 1
f 154/102/78 156/103/80 166/104/90 165/105/89 
s 3
f 156/90/80 158/94/82 167/106/91 166/107/90 
s 1
f 158/94/82 160/96/84 168/108/92 167/106/91 
s 3
f 160/96/84 147/80/71 162/98/86 168/108/92 
s 1
f 169/109/93 170/110/94 162/98/86 161/97/85 
s 3
f 161/97/85 163/99/87 171/111/95 169/109/93 
s 1
f 163/99/87 164/100/88 172/112/96 171/111/95 
s 3
f 164/100/88 165/101/89 173/113/97 172/112/96 
s 1
f 165/114/89 166/107/90 174/115/98 173/116/97 
s 3
f 166/107/90 167/106/91 175/117/99 174/118/98 
s 1
f 167/106/91 168/108/92 176/119/100 175/117/99 
s 3
f 168/108/92 162/98/86 170/110/94 176/119/100 
s 1
f 177/78/69 178/79/70 179/80/71 180/81/72 
s 3
f 177/78/69 181/82/73 182/83/74 178/79/70 
s 1
f 181/82/73 183/84/75 184/85/76 182/83/74 
s 3
f 183/84/75 185/86/77 186/87/78 184/85/76 
s 1
f 185/88/77 187/89/79 188/90/80 186/91/78 
s 3
f 187/92/79 189/93/81 190/94/82 188/90/80 
s 1
f 189/93/81 191/95/83 192/96/84 190/94/82 
s 3
f 191/95/83 180/81/72 179/80/71 192/96/84 
s 1
f 193/97/85 194/98/86 179/80/71 178/79/70 
s 3
f 178/79/70 182/83/74 195/99/87 193/97/85 
s 1
f 182/83/74 184/85/76 196/100/88 195/99/87 
s 3
f 184/85/76 186/87/78 197/101/89 196/100/88 
s 1
f 186/102/78 188/103/80 198/104/90 197/105/89 
s 3
f 188/90/80 190/94/82 199/106/91 198/107/90 
s 1
f 190/94/82 192/96/84 200/108/92 199/106/91 
s 3
f 192/96/84 179/80/71 194/98/86 200/108/92 
s 1
f 201/109/93 202/110/94 194/98/86 193/97/85 
s 3
f 193/97/85 195/99/87 203/111/95 201/109/93 
s 1
f 195/99/87 196/100/88 204/112/96 203/111/95 
s 3
f 196/100/88 197/101/89 205/113/97 204/112/96 
s 1
f 197/114/89 198/107/90 206/115/98 205/116/97 
s 3
f 198/107/90 199/106/91 207/117/99 206/118/98 
s 1
f 199/106/91 200/108/92 208/119/100 207/117/99 
s 3
f 200/108/92 194/98/86 202/110/94 208/119/100 
# 170 polygons

